{"glyphs":{"0":{"ha":785,"x_min":75,"x_max":710,"o":"m 75 468 q 157 827 75 701 q 392 953 239 953 q 627 827 544 953 q 710 468 710 701 q 628 110 710 233 q 392 -14 547 -14 q 156 110 236 -14 q 75 468 75 233 m 124 468 q 192 140 124 251 q 392 28 260 28 q 592 140 524 28 q 661 468 661 251 q 592 799 661 686 q 392 911 524 911 q 192 799 261 911 q 124 468 124 686 z "},"1":{"ha":388,"x_min":24,"x_max":258,"o":"m 258 0 l 213 0 l 213 899 l 24 899 l 24 939 l 258 939 l 258 0 z "},"2":{"ha":675,"x_min":64,"x_max":601,"o":"m 601 40 l 601 0 l 82 0 l 82 26 l 389 390 q 512 562 478 494 q 546 699 546 629 q 485 850 546 789 q 331 911 424 911 q 173 850 235 911 q 111 692 111 789 l 64 692 q 139 879 64 806 q 331 953 214 953 q 520 881 446 953 q 594 700 594 810 q 558 557 594 628 q 421 367 521 486 l 147 40 l 601 40 z "},"3":{"ha":790,"x_min":93,"x_max":690,"o":"m 394 -12 q 178 59 261 -12 q 93 250 96 131 l 138 250 q 212 90 142 150 q 394 29 282 29 q 575 89 508 29 q 642 250 642 149 q 569 405 642 346 q 378 464 496 464 l 289 464 l 289 506 l 378 506 q 535 565 472 506 q 597 714 597 624 q 538 856 597 800 q 388 911 479 911 q 233 856 293 911 q 167 710 174 801 l 122 710 q 203 884 128 815 q 388 953 278 953 q 574 886 501 953 q 646 714 646 819 q 601 577 646 636 q 474 488 556 518 q 633 401 576 464 q 690 250 690 339 q 608 60 690 133 q 394 -12 526 -12 z "},"4":{"ha":754,"x_min":51,"x_max":682,"o":"m 682 244 l 560 244 l 560 0 l 513 0 l 513 244 l 51 244 l 51 268 l 535 939 l 560 939 l 560 285 l 682 285 l 682 244 m 113 285 l 513 285 l 513 842 l 113 285 z "},"5":{"ha":731,"x_min":75,"x_max":664,"o":"m 357 -14 q 159 60 239 -14 q 75 249 79 135 l 119 249 q 191 88 125 149 q 357 28 257 28 q 547 97 476 28 q 617 286 617 165 q 544 462 617 392 q 364 532 472 532 q 135 413 222 532 l 103 418 l 185 939 l 613 939 l 613 899 l 218 899 l 154 483 q 367 574 244 574 q 581 492 497 574 q 664 288 664 411 q 579 69 664 151 q 357 -14 494 -14 z "},"6":{"ha":733,"x_min":58,"x_max":675,"o":"m 587 73 q 543 30 587 73 q 367 -14 499 -14 q 147 74 235 -14 q 58 292 58 161 q 78 404 58 350 q 119 488 99 458 q 182 574 139 517 l 465 939 l 519 939 l 232 567 q 376 596 307 596 q 590 512 504 596 q 675 289 675 428 q 587 73 675 160 m 367 25 q 553 101 479 25 q 628 289 628 178 q 554 483 628 407 q 367 560 481 560 q 178 488 250 560 q 106 292 106 417 q 179 102 106 179 q 367 25 253 25 z "},"7":{"ha":656,"x_min":26,"x_max":615,"o":"m 615 913 l 226 0 l 175 0 l 563 897 l 26 897 l 26 939 l 615 939 l 615 913 z "},"8":{"ha":825,"x_min":100,"x_max":725,"o":"m 725 250 q 638 59 725 131 q 413 -12 551 -12 q 187 59 274 -12 q 100 250 100 131 q 158 406 100 343 q 307 489 217 468 q 190 572 238 511 q 143 710 143 633 q 221 885 143 818 q 413 953 299 953 q 603 885 526 953 q 681 710 681 818 q 634 572 681 633 q 519 489 588 511 q 667 406 610 468 q 725 250 725 343 m 192 710 q 253 561 192 615 q 413 507 315 507 q 572 561 510 507 q 633 710 633 615 q 572 856 633 801 q 413 911 510 911 q 253 856 315 911 q 192 710 192 801 m 222 408 q 185 380 222 408 q 149 250 149 351 q 223 89 149 149 q 413 29 297 29 q 602 89 528 29 q 676 250 676 149 q 603 408 676 351 q 413 465 529 465 q 222 408 296 465 z "},"9":{"ha":733,"x_min":58,"x_max":675,"o":"m 147 866 q 191 909 147 866 q 367 953 235 953 q 587 865 499 953 q 675 647 675 778 q 646 510 675 569 q 550 365 617 451 l 268 0 l 213 0 l 501 374 q 356 344 432 344 q 144 428 229 344 q 58 650 58 513 q 147 866 58 779 m 367 914 q 179 838 253 914 q 106 650 106 761 q 178 456 106 532 q 367 379 251 379 q 556 451 483 379 q 628 647 628 522 q 553 837 628 760 q 367 914 479 914 z "},"\u0000":{"ha":0,"x_min":0,"x_max":0,"o":""},"\r":{"ha":389,"x_min":0,"x_max":0,"o":""}," ":{"ha":290,"x_min":0,"x_max":0,"o":""},"!":{"ha":326,"x_min":97,"x_max":229,"o":"m 181 224 l 144 224 l 139 997 l 186 997 l 181 224 m 229 58 q 210 12 229 31 q 163 -7 190 -7 q 116 12 135 -7 q 97 58 97 31 q 116 106 97 88 q 163 125 135 125 q 210 106 190 125 q 229 58 229 88 z "},"\"":{"ha":506,"x_min":154,"x_max":351,"o":"m 194 794 l 160 794 l 154 997 l 201 997 l 194 794 m 344 794 l 310 794 l 304 997 l 351 997 l 344 794 z "},"#":{"ha":917,"x_min":97,"x_max":819,"o":"m 211 0 l 169 0 l 265 313 l 97 313 l 97 350 l 276 350 l 343 568 l 153 568 l 153 606 l 356 606 l 457 939 l 499 939 l 397 606 l 604 606 l 706 939 l 747 939 l 646 606 l 819 606 l 819 568 l 633 568 l 567 350 l 764 350 l 764 313 l 556 313 l 460 0 l 418 0 l 514 313 l 307 313 l 211 0 m 385 568 l 318 350 l 525 350 l 592 568 l 385 568 z "},"$":{"ha":813,"x_min":88,"x_max":715,"o":"m 425 -124 l 383 -124 l 383 -14 q 169 72 247 -7 q 88 274 92 150 l 138 274 q 215 94 147 158 q 408 29 282 29 q 592 86 518 29 q 665 239 665 143 q 617 368 665 325 q 453 436 569 411 l 358 457 q 272 482 308 468 q 195 522 235 496 q 135 592 156 549 q 114 696 114 636 q 190 872 114 799 q 383 951 265 944 l 383 1065 l 425 1065 l 425 951 q 620 867 542 944 q 706 669 699 790 l 656 669 q 580 841 649 774 q 406 908 511 908 q 228 847 293 908 q 164 697 164 785 q 181 614 164 649 q 233 557 199 579 q 301 523 267 535 q 385 500 335 511 l 481 479 q 655 403 594 454 q 715 244 715 353 q 638 66 715 140 q 425 -14 561 -8 l 425 -124 z "},"%":{"ha":1424,"x_min":58,"x_max":1365,"o":"m 523 447 q 486 406 523 447 q 328 364 449 364 q 133 447 207 364 q 58 656 58 531 q 133 863 58 779 q 328 947 207 947 q 523 863 449 947 q 597 656 597 779 q 523 447 597 531 m 469 0 l 425 0 l 950 939 l 996 939 l 469 0 m 169 470 q 201 436 169 470 q 328 401 233 401 q 487 470 422 401 q 551 656 551 539 q 488 842 551 774 q 328 910 424 910 q 168 842 232 910 q 104 656 104 774 q 169 470 104 539 m 1291 72 q 1254 31 1291 72 q 1096 -11 1217 -11 q 901 72 975 -11 q 826 281 826 156 q 901 488 826 404 q 1096 572 975 572 q 1291 488 1217 572 q 1365 281 1365 404 q 1291 72 1365 156 m 937 95 q 969 61 937 95 q 1096 26 1001 26 q 1255 95 1190 26 q 1319 281 1319 164 q 1256 467 1319 399 q 1096 535 1192 535 q 936 467 1000 535 q 872 281 872 399 q 937 95 872 164 z "},"&":{"ha":789,"x_min":50,"x_max":750,"o":"m 328 517 l 618 161 q 685 413 674 250 l 729 413 q 644 129 718 232 l 750 0 l 690 0 l 614 93 q 357 -15 511 -15 q 133 62 217 -15 q 50 269 50 139 q 110 430 50 363 q 263 528 169 497 q 189 638 210 594 q 168 742 168 682 q 234 892 168 831 q 396 953 300 953 q 562 893 494 953 q 633 740 629 833 l 589 740 q 526 867 583 819 q 396 915 468 915 q 267 865 319 915 q 214 742 214 815 q 238 640 214 683 q 328 517 263 596 m 96 271 q 163 99 96 175 q 358 24 231 24 q 590 124 499 24 l 285 499 q 149 415 203 475 q 96 271 96 354 z "},"'":{"ha":356,"x_min":154,"x_max":201,"o":"m 194 794 l 160 794 l 154 997 l 201 997 l 194 794 z "},"(":{"ha":411,"x_min":142,"x_max":358,"o":"m 358 -268 l 318 -268 q 142 365 142 1 q 318 997 142 728 l 358 997 q 186 365 186 738 q 358 -268 186 -8 z "},")":{"ha":411,"x_min":53,"x_max":269,"o":"m 93 -268 l 53 -268 q 225 365 225 -8 q 53 997 225 738 l 93 997 q 269 365 269 728 q 93 -268 269 1 z "},"*":{"ha":694,"x_min":68,"x_max":626,"o":"m 347 685 l 181 483 l 153 510 l 317 710 l 68 781 l 81 817 l 328 746 l 328 997 l 367 997 l 367 746 l 614 817 l 626 781 l 378 710 l 542 510 l 514 483 l 347 685 z "},"+":{"ha":917,"x_min":111,"x_max":806,"o":"m 479 115 l 438 115 l 438 443 l 111 443 l 111 481 l 438 481 l 438 807 l 479 807 l 479 481 l 806 481 l 806 443 l 479 443 l 479 115 z "},",":{"ha":356,"x_min":83,"x_max":243,"o":"m 243 31 q 201 -79 243 -29 q 83 -133 160 -129 l 83 -97 q 165 -59 133 -92 q 200 17 197 -26 q 167 10 186 10 q 124 26 140 10 q 107 67 107 43 q 124 109 107 93 q 168 125 142 125 q 224 99 206 125 q 243 31 243 72 z "},"-":{"ha":503,"x_min":28,"x_max":475,"o":"m 475 364 l 28 364 l 28 406 l 475 406 l 475 364 z "},".":{"ha":356,"x_min":113,"x_max":243,"o":"m 243 58 q 224 12 243 31 q 178 -7 206 -7 q 131 12 150 -7 q 113 58 113 31 q 131 106 113 88 q 178 125 150 125 q 224 106 206 125 q 243 58 243 88 z "},"/":{"ha":656,"x_min":-4,"x_max":660,"o":"m 42 -268 l -4 -268 l 614 997 l 660 997 l 42 -268 z "},":":{"ha":356,"x_min":113,"x_max":243,"o":"m 243 663 q 224 616 243 635 q 178 597 206 597 q 131 616 150 597 q 113 663 113 635 q 131 710 113 692 q 178 729 150 729 q 224 710 206 729 q 243 663 243 692 m 243 58 q 224 12 243 31 q 178 -7 206 -7 q 131 12 150 -7 q 113 58 113 31 q 131 106 113 88 q 178 125 150 125 q 224 106 206 125 q 243 58 243 88 z "},";":{"ha":356,"x_min":83,"x_max":243,"o":"m 236 663 q 217 616 236 635 q 171 597 199 597 q 124 616 143 597 q 106 663 106 635 q 124 710 106 692 q 171 729 143 729 q 217 710 199 729 q 236 663 236 692 m 243 31 q 201 -79 243 -29 q 83 -133 160 -129 l 83 -97 q 165 -59 133 -92 q 200 17 197 -26 q 167 10 186 10 q 124 26 140 10 q 107 67 107 43 q 124 109 107 93 q 168 125 142 125 q 224 99 206 125 q 243 31 243 72 z "},"<":{"ha":917,"x_min":111,"x_max":806,"o":"m 111 481 l 806 799 l 806 757 l 163 463 l 806 167 l 806 125 l 111 443 l 111 481 z "},"=":{"ha":917,"x_min":111,"x_max":806,"o":"m 806 569 l 111 569 l 111 607 l 806 607 l 806 569 m 806 317 l 111 317 l 111 354 l 806 354 l 806 317 z "},">":{"ha":917,"x_min":111,"x_max":806,"o":"m 806 443 l 111 125 l 111 167 l 754 463 l 111 757 l 111 799 l 806 481 l 806 443 z "},"?":{"ha":556,"x_min":25,"x_max":531,"o":"m 72 779 l 25 779 q 97 946 26 881 q 275 1011 168 1011 q 461 946 392 1011 q 531 782 531 881 q 501 665 531 715 q 408 560 471 615 l 353 510 q 276 404 294 458 q 263 224 257 350 l 224 224 q 231 410 214 351 q 307 524 247 468 l 372 585 q 458 681 432 640 q 483 776 483 721 q 426 913 483 858 q 275 968 369 968 q 129 915 186 968 q 72 779 72 863 m 319 58 q 300 12 319 31 q 253 -7 281 -7 q 206 12 225 -7 q 188 58 188 31 q 206 106 188 88 q 253 125 225 125 q 300 106 281 125 q 319 58 319 88 z "},"@":{"ha":1307,"x_min":61,"x_max":1246,"o":"m 989 -149 l 989 -192 q 646 -282 844 -282 q 230 -103 399 -282 q 61 335 61 75 q 234 774 61 596 q 660 953 407 953 q 1080 792 914 953 q 1246 388 1246 631 q 1174 134 1246 229 q 986 39 1101 39 q 821 175 838 39 q 592 39 744 39 q 419 115 486 39 q 353 310 353 192 q 433 535 353 446 q 635 624 514 624 q 779 578 721 624 q 861 450 838 533 l 892 604 l 938 604 l 872 282 q 864 207 864 240 q 988 78 864 78 q 1141 160 1083 78 q 1199 385 1199 243 q 1046 762 1199 610 q 660 914 893 914 q 266 748 424 914 q 108 335 108 582 q 263 -77 108 89 q 646 -243 417 -243 q 989 -149 854 -243 m 400 313 q 453 142 400 207 q 594 78 506 78 q 767 158 697 78 q 838 357 838 238 q 784 524 838 464 q 635 585 731 585 q 466 508 532 585 q 400 313 400 431 z "},"A":{"ha":935,"x_min":47,"x_max":888,"o":"m 839 0 l 718 308 l 214 308 l 93 0 l 47 0 l 442 997 l 494 997 l 888 0 l 839 0 m 467 949 l 231 350 l 701 350 l 467 949 z "},"B":{"ha":850,"x_min":118,"x_max":750,"o":"m 750 272 q 665 72 750 143 q 439 0 579 0 l 118 0 l 118 997 l 414 997 q 628 931 553 997 q 704 744 704 865 q 657 605 704 667 q 529 518 610 543 q 693 432 636 497 q 750 272 750 367 m 414 956 l 167 956 l 167 535 l 414 535 q 592 590 528 535 q 656 744 656 646 q 592 899 656 843 q 414 956 528 956 m 439 493 l 167 493 l 167 42 l 439 42 q 631 102 561 42 q 701 272 701 163 q 631 435 701 376 q 439 493 561 493 z "},"C":{"ha":1060,"x_min":61,"x_max":999,"o":"m 542 -21 q 199 129 336 -21 q 61 500 61 279 q 199 869 61 721 q 542 1018 336 1018 q 840 913 713 1018 q 999 638 968 808 l 949 638 q 808 880 921 785 q 542 975 694 975 q 234 839 357 975 q 111 500 111 703 q 234 158 111 294 q 542 22 357 22 q 810 118 696 22 q 949 361 924 214 l 999 361 q 840 85 968 192 q 542 -21 711 -21 z "},"D":{"ha":915,"x_min":118,"x_max":854,"o":"m 364 0 l 118 0 l 118 997 l 364 997 q 726 862 599 997 q 854 501 854 726 q 724 140 854 281 q 364 0 593 0 m 167 956 l 167 42 l 365 42 q 689 169 572 42 q 806 501 806 296 q 690 832 806 708 q 365 956 575 956 l 167 956 z "},"E":{"ha":769,"x_min":118,"x_max":679,"o":"m 679 42 l 679 0 l 118 0 l 118 997 l 669 997 l 669 956 l 167 956 l 167 536 l 628 536 l 628 494 l 167 494 l 167 42 l 679 42 z "},"F":{"ha":694,"x_min":118,"x_max":653,"o":"m 167 0 l 118 0 l 118 997 l 653 997 l 653 956 l 167 956 l 167 494 l 588 494 l 588 453 l 167 453 l 167 0 z "},"G":{"ha":1108,"x_min":61,"x_max":1047,"o":"m 561 -21 q 204 127 347 -21 q 61 497 61 275 q 201 869 61 719 q 554 1018 340 1018 q 867 915 742 1018 q 1033 657 992 813 l 983 657 q 834 887 944 799 q 553 975 724 975 q 234 839 357 975 q 111 497 111 703 q 238 157 111 292 q 560 22 364 22 q 863 133 747 22 q 999 438 979 244 l 554 438 l 554 479 l 1047 479 q 906 113 1039 247 q 561 -21 774 -21 z "},"H":{"ha":969,"x_min":118,"x_max":851,"o":"m 167 0 l 118 0 l 118 997 l 167 997 l 167 536 l 803 536 l 803 997 l 851 997 l 851 0 l 803 0 l 803 494 l 167 494 l 167 0 z "},"I":{"ha":285,"x_min":118,"x_max":167,"o":"m 167 0 l 118 0 l 118 997 l 167 997 l 167 0 z "},"J":{"ha":764,"x_min":33,"x_max":653,"o":"m 653 997 l 653 315 q 568 65 653 150 q 342 -21 483 -21 q 127 56 211 -21 q 33 268 43 133 l 82 268 q 163 87 90 151 q 342 22 236 22 q 531 92 457 22 q 604 306 604 163 l 604 997 l 653 997 z "},"K":{"ha":810,"x_min":118,"x_max":768,"o":"m 167 0 l 118 0 l 118 997 l 167 997 l 167 496 l 694 997 l 754 997 l 221 489 l 768 0 l 699 0 l 167 475 l 167 0 z "},"L":{"ha":690,"x_min":118,"x_max":649,"o":"m 649 0 l 118 0 l 118 997 l 167 997 l 167 42 l 649 42 l 649 0 z "},"M":{"ha":1207,"x_min":118,"x_max":1089,"o":"m 579 0 l 165 942 l 165 0 l 118 0 l 118 997 l 190 997 l 603 60 l 1018 997 l 1089 997 l 1089 0 l 1042 0 l 1042 939 l 626 0 l 579 0 z "},"N":{"ha":990,"x_min":118,"x_max":872,"o":"m 813 0 l 165 929 l 165 0 l 118 0 l 118 997 l 175 997 l 825 65 l 825 997 l 872 997 l 872 0 l 813 0 z "},"O":{"ha":1121,"x_min":61,"x_max":1060,"o":"m 561 -21 q 203 131 346 -21 q 61 500 61 282 q 203 867 61 717 q 561 1018 346 1018 q 917 867 775 1018 q 1060 500 1060 717 q 917 131 1060 283 q 561 -21 775 -21 m 239 160 q 303 91 239 160 q 561 22 367 22 q 883 160 756 22 q 1010 500 1010 297 q 883 839 1010 703 q 561 975 757 975 q 238 839 365 975 q 111 500 111 703 q 239 160 111 297 z "},"P":{"ha":797,"x_min":118,"x_max":744,"o":"m 424 389 l 167 389 l 167 0 l 118 0 l 118 997 l 424 997 q 656 916 567 997 q 744 693 744 835 q 656 469 744 550 q 424 389 567 389 m 422 956 l 167 956 l 167 431 l 422 431 q 622 499 549 431 q 696 693 696 568 q 622 887 696 818 q 422 956 549 956 z "},"Q":{"ha":1121,"x_min":61,"x_max":1060,"o":"m 561 -21 q 203 131 346 -21 q 61 500 61 282 q 203 867 61 717 q 561 1018 346 1018 q 917 867 775 1018 q 1060 500 1060 717 q 982 215 1060 343 q 774 26 904 88 l 944 -253 l 888 -253 l 728 7 q 561 -21 649 -21 m 239 160 q 303 91 239 160 q 561 22 367 22 q 883 160 756 22 q 1010 500 1010 297 q 883 839 1010 703 q 561 975 757 975 q 238 839 365 975 q 111 500 111 703 q 239 160 111 297 z "},"R":{"ha":850,"x_min":118,"x_max":793,"o":"m 167 0 l 118 0 l 118 997 l 456 997 q 685 921 600 997 q 769 707 769 844 q 696 509 769 588 q 499 419 622 431 l 793 0 l 735 0 l 444 417 l 167 417 l 167 0 m 167 956 l 167 458 l 447 458 q 647 524 574 458 q 721 707 721 589 q 647 890 721 825 q 447 956 574 956 l 167 956 z "},"S":{"ha":879,"x_min":88,"x_max":782,"o":"m 782 258 q 692 66 782 146 q 442 -14 601 -14 q 186 69 279 -14 q 88 290 93 153 l 138 290 q 224 99 147 168 q 442 29 300 29 q 649 90 567 29 q 732 254 732 151 q 679 392 732 346 q 496 465 626 438 l 389 488 q 313 506 346 496 q 241 536 279 517 q 177 581 203 556 q 134 648 151 607 q 117 740 117 689 q 208 933 117 854 q 439 1011 299 1011 q 669 929 575 1011 q 771 713 764 847 l 719 713 q 636 897 713 825 q 439 968 560 968 q 240 901 313 968 q 167 742 167 835 q 186 653 167 690 q 244 592 206 615 q 322 556 283 568 q 417 531 360 543 l 521 508 q 717 424 653 481 q 782 258 782 367 z "},"T":{"ha":797,"x_min":31,"x_max":767,"o":"m 422 0 l 375 0 l 375 956 l 31 956 l 31 997 l 767 997 l 767 956 l 422 956 l 422 0 z "},"U":{"ha":911,"x_min":115,"x_max":796,"o":"m 796 997 l 796 322 q 702 71 796 163 q 456 -21 608 -21 q 209 71 303 -21 q 115 322 115 163 l 115 997 l 164 997 l 164 317 q 247 103 164 183 q 456 22 331 22 q 665 102 581 22 q 749 317 749 182 l 749 997 l 796 997 z "},"V":{"ha":893,"x_min":40,"x_max":853,"o":"m 853 997 l 474 0 l 419 0 l 40 997 l 88 997 l 446 53 l 806 997 l 853 997 z "},"W":{"ha":1253,"x_min":47,"x_max":1206,"o":"m 885 0 l 626 938 l 367 0 l 314 0 l 47 997 l 94 997 l 339 63 l 599 997 l 654 997 l 913 61 l 1158 997 l 1206 997 l 940 0 l 885 0 z "},"X":{"ha":835,"x_min":56,"x_max":779,"o":"m 107 0 l 56 0 l 393 513 l 78 997 l 131 997 l 421 551 l 713 997 l 764 997 l 446 513 l 779 0 l 726 0 l 418 475 l 107 0 z "},"Y":{"ha":819,"x_min":17,"x_max":803,"o":"m 433 374 l 433 0 l 385 0 l 385 374 l 17 997 l 71 997 l 410 421 l 750 997 l 803 997 l 433 374 z "},"Z":{"ha":803,"x_min":50,"x_max":753,"o":"m 753 0 l 50 0 l 50 28 l 667 956 l 78 956 l 78 997 l 729 997 l 729 969 l 113 42 l 753 42 l 753 0 z "},"[":{"ha":411,"x_min":157,"x_max":344,"o":"m 344 -268 l 157 -268 l 157 997 l 344 997 l 344 960 l 200 960 l 200 -231 l 344 -231 l 344 -268 z "},"\\":{"ha":656,"x_min":-4,"x_max":660,"o":"m 660 -268 l 614 -268 l -4 997 l 42 997 l 660 -268 z "},"]":{"ha":411,"x_min":67,"x_max":254,"o":"m 254 -268 l 67 -268 l 67 -231 l 211 -231 l 211 960 l 67 960 l 67 997 l 254 997 l 254 -268 z "},"^":{"ha":917,"x_min":147,"x_max":769,"o":"m 726 381 l 458 894 l 190 381 l 147 381 l 439 939 l 479 939 l 769 381 l 726 381 z "},"_":{"ha":694,"x_min":0,"x_max":694,"o":"m 694 -268 l 0 -268 l 0 -231 l 694 -231 l 694 -268 z "},"`":{"ha":694,"x_min":246,"x_max":449,"o":"m 449 825 l 388 825 l 246 997 l 307 997 l 449 825 z "},"a":{"ha":724,"x_min":67,"x_max":615,"o":"m 569 0 l 569 154 q 471 31 540 76 q 313 -14 401 -14 q 133 43 200 -14 q 67 196 67 100 q 403 411 67 411 q 568 403 465 411 l 568 474 q 515 641 568 581 q 365 701 461 701 q 201 640 263 701 q 140 475 140 579 l 96 475 q 169 667 96 594 q 364 740 243 740 q 549 672 482 740 q 615 482 615 604 l 615 0 l 569 0 m 114 197 q 169 72 114 119 q 313 25 224 25 q 499 99 429 25 q 568 296 568 172 l 568 367 q 404 374 478 374 q 114 197 114 374 z "},"b":{"ha":808,"x_min":115,"x_max":750,"o":"m 750 364 q 664 89 750 192 q 432 -14 578 -14 q 268 37 340 -14 q 161 178 196 88 l 161 0 l 115 0 l 115 997 l 163 997 l 163 543 q 267 688 196 636 q 432 740 339 740 q 663 638 576 740 q 750 364 750 535 m 703 364 q 630 611 703 521 q 431 701 557 701 q 235 611 310 701 q 160 367 160 521 q 234 119 160 213 q 431 25 308 25 q 630 115 557 25 q 703 364 703 206 z "},"c":{"ha":731,"x_min":58,"x_max":672,"o":"m 369 -15 q 145 90 232 -15 q 58 364 58 196 q 145 635 58 531 q 369 740 232 740 q 568 667 488 740 q 672 461 649 593 l 626 461 q 538 638 606 575 q 369 701 469 701 q 179 607 253 701 q 106 364 106 513 q 179 119 106 214 q 369 24 253 24 q 539 88 471 24 q 628 265 607 151 l 672 265 q 569 60 650 135 q 369 -15 489 -15 z "},"d":{"ha":808,"x_min":58,"x_max":693,"o":"m 58 364 q 144 638 58 535 q 376 740 231 740 q 539 688 467 740 q 646 544 611 636 l 646 997 l 693 997 l 693 0 l 647 0 l 647 178 q 540 37 613 88 q 376 -14 468 -14 q 144 89 231 -14 q 58 364 58 192 m 106 364 q 178 115 106 206 q 376 25 250 25 q 574 119 500 25 q 649 367 649 213 q 574 611 649 521 q 376 701 499 701 q 178 611 250 701 q 106 364 106 521 z "},"e":{"ha":754,"x_min":58,"x_max":696,"o":"m 385 -15 q 148 91 238 -15 q 58 371 58 197 q 149 635 58 529 q 378 740 240 740 q 610 633 524 740 q 692 353 697 526 l 104 353 q 185 113 110 201 q 385 24 260 24 q 560 83 490 24 q 650 244 631 142 l 696 244 q 591 55 675 125 q 385 -15 507 -15 m 378 701 q 186 615 263 701 q 104 392 110 529 l 643 392 q 566 619 636 538 q 378 701 496 701 z "},"f":{"ha":456,"x_min":-7,"x_max":451,"o":"m 224 0 l 176 0 l 176 689 l -7 689 l -7 726 l 176 726 l 176 807 q 225 954 176 903 q 360 1006 274 1006 q 431 994 397 1006 l 431 951 q 363 963 404 963 q 224 810 224 963 l 224 726 l 451 726 l 451 689 l 224 689 l 224 0 z "},"g":{"ha":783,"x_min":58,"x_max":668,"o":"m 372 -283 q 160 -217 238 -283 q 76 -32 82 -151 l 121 -32 q 192 -190 128 -135 q 371 -244 257 -244 q 557 -181 493 -244 q 621 6 621 -117 l 621 182 q 519 42 586 92 q 363 -7 451 -7 q 141 94 224 -7 q 58 368 58 196 q 141 639 58 538 q 363 740 224 740 q 519 688 450 740 q 622 543 589 635 l 622 726 l 668 726 l 668 7 q 591 -208 668 -132 q 372 -283 514 -283 m 106 368 q 174 122 106 211 q 364 33 243 33 q 552 122 481 33 q 624 358 624 211 q 553 608 624 515 q 364 701 483 701 q 175 613 244 701 q 106 368 106 524 z "},"h":{"ha":768,"x_min":115,"x_max":660,"o":"m 163 438 l 163 0 l 115 0 l 115 997 l 163 997 l 163 572 q 263 694 196 647 q 410 740 329 740 q 593 670 526 740 q 660 472 660 600 l 660 0 l 613 0 l 613 456 q 558 638 613 574 q 401 701 503 701 q 233 624 303 701 q 163 438 163 547 z "},"i":{"ha":278,"x_min":86,"x_max":192,"o":"m 177 931 q 184 924 177 931 q 192 894 192 917 q 176 857 192 872 q 139 842 161 842 q 101 857 117 842 q 86 894 86 872 q 101 931 86 917 q 139 944 115 944 q 177 931 163 944 m 163 0 l 115 0 l 115 726 l 163 726 l 163 0 z "},"j":{"ha":278,"x_min":-97,"x_max":193,"o":"m 178 931 q 186 924 178 931 q 193 894 193 917 q 178 857 193 872 q 140 842 164 842 q 102 857 117 842 q 88 894 88 872 q 102 931 88 917 q 140 944 117 944 q 178 931 164 944 m 163 726 l 163 -107 q 116 -235 163 -189 q -14 -282 69 -282 q -97 -268 -65 -282 l -97 -226 q -17 -239 -60 -239 q 115 -107 115 -239 l 115 726 l 163 726 z "},"k":{"ha":646,"x_min":115,"x_max":646,"o":"m 163 0 l 115 0 l 115 997 l 163 997 l 163 372 l 558 726 l 618 726 l 217 367 l 646 0 l 581 0 l 163 356 l 163 0 z "},"l":{"ha":278,"x_min":115,"x_max":163,"o":"m 163 0 l 115 0 l 115 997 l 163 997 l 163 0 z "},"m":{"ha":1253,"x_min":115,"x_max":1144,"o":"m 163 0 l 115 0 l 115 726 l 161 726 l 161 574 q 262 696 196 651 q 408 740 328 740 q 561 690 499 740 q 643 551 624 640 q 742 689 672 638 q 900 740 813 740 q 1080 669 1015 740 q 1144 472 1144 599 l 1144 0 l 1099 0 l 1099 456 q 1044 638 1099 574 q 889 701 990 701 q 722 624 790 701 q 654 438 654 547 l 654 0 l 607 0 l 607 456 q 553 638 607 575 q 397 701 499 701 q 231 624 299 701 q 163 438 163 547 l 163 0 z "},"n":{"ha":768,"x_min":115,"x_max":660,"o":"m 163 438 l 163 0 l 115 0 l 115 726 l 161 726 l 161 572 q 262 694 194 647 q 410 740 329 740 q 593 670 526 740 q 660 472 660 600 l 660 0 l 613 0 l 613 456 q 558 638 613 574 q 401 701 503 701 q 233 624 303 701 q 163 438 163 547 z "},"o":{"ha":783,"x_min":58,"x_max":725,"o":"m 632 91 q 585 39 632 91 q 392 -14 539 -14 q 151 91 244 -14 q 58 364 58 196 q 151 634 58 529 q 392 739 244 739 q 632 634 539 739 q 725 364 725 529 q 632 91 725 196 m 185 119 q 225 72 185 119 q 392 25 265 25 q 598 119 518 25 q 678 364 678 213 q 598 607 678 514 q 392 700 518 700 q 185 607 265 700 q 106 364 106 514 q 185 119 106 213 z "},"p":{"ha":808,"x_min":115,"x_max":750,"o":"m 750 364 q 664 89 750 192 q 433 -14 578 -14 q 269 37 342 -14 q 163 178 197 88 l 163 -268 l 115 -268 l 115 726 l 161 726 l 161 543 q 269 688 196 635 q 433 740 342 740 q 663 638 576 740 q 750 364 750 535 m 703 364 q 630 611 703 521 q 432 701 557 701 q 235 610 311 701 q 160 365 160 519 q 235 119 160 213 q 432 25 310 25 q 630 115 557 25 q 703 364 703 206 z "},"q":{"ha":808,"x_min":58,"x_max":693,"o":"m 58 364 q 144 638 58 535 q 376 740 231 740 q 542 687 469 740 q 647 539 614 633 l 647 726 l 693 726 l 693 -268 l 646 -268 l 646 178 q 539 37 611 88 q 376 -14 467 -14 q 144 89 231 -14 q 58 364 58 192 m 106 364 q 178 115 106 206 q 376 25 250 25 q 574 118 500 25 q 649 365 649 211 q 574 611 649 521 q 376 701 499 701 q 178 611 250 701 q 106 364 106 521 z "},"r":{"ha":449,"x_min":115,"x_max":435,"o":"m 163 408 l 163 0 l 115 0 l 115 726 l 161 726 l 161 547 q 271 688 197 635 q 435 740 344 740 l 435 690 q 242 608 322 690 q 163 408 163 526 z "},"s":{"ha":696,"x_min":67,"x_max":622,"o":"m 622 186 q 550 40 622 93 q 353 -14 478 -14 q 153 48 229 -14 q 67 217 76 110 l 111 217 q 183 76 118 128 q 353 25 247 25 q 517 66 458 25 q 575 181 575 107 q 535 280 575 246 q 396 333 494 314 l 304 351 q 93 546 93 393 q 163 686 93 632 q 343 740 233 740 q 535 681 463 740 q 614 517 607 621 l 569 517 q 501 653 561 604 q 343 701 442 701 q 197 659 253 701 q 140 549 140 617 q 182 447 140 483 q 321 393 224 411 l 414 375 q 573 309 524 354 q 622 186 622 264 z "},"t":{"ha":501,"x_min":-14,"x_max":456,"o":"m 447 43 l 447 0 q 365 -14 407 -14 q 224 33 278 -14 q 169 189 169 81 l 169 689 l -14 689 l -14 726 l 169 726 l 169 942 l 217 942 l 217 726 l 456 726 l 456 689 l 217 689 l 217 197 q 368 29 217 29 q 447 43 408 29 z "},"u":{"ha":754,"x_min":108,"x_max":639,"o":"m 592 286 l 592 726 l 639 726 l 639 0 l 593 0 l 593 150 q 499 32 565 78 q 350 -14 433 -14 q 172 51 235 -14 q 108 249 108 117 l 108 726 l 156 726 l 156 261 q 210 82 156 139 q 357 25 264 25 q 526 100 461 25 q 592 286 592 175 z "},"v":{"ha":636,"x_min":11,"x_max":625,"o":"m 625 726 l 339 0 l 294 0 l 11 726 l 61 726 l 318 58 l 575 726 l 625 726 z "},"w":{"ha":1017,"x_min":25,"x_max":992,"o":"m 726 0 l 508 665 l 290 0 l 240 0 l 25 726 l 74 726 l 265 67 l 485 726 l 531 726 l 750 65 l 942 726 l 992 726 l 775 0 l 726 0 z "},"x":{"ha":640,"x_min":14,"x_max":626,"o":"m 68 0 l 14 0 l 293 374 l 31 726 l 85 726 l 321 410 l 557 726 l 611 726 l 350 374 l 626 0 l 572 0 l 319 339 l 68 0 z "},"y":{"ha":636,"x_min":11,"x_max":625,"o":"m 625 726 l 243 -268 l 194 -268 l 301 10 l 11 726 l 61 726 l 325 71 l 575 726 l 625 726 z "},"z":{"ha":628,"x_min":33,"x_max":594,"o":"m 594 0 l 33 0 l 33 26 l 518 688 l 56 688 l 56 726 l 575 726 l 575 696 l 94 39 l 594 39 l 594 0 z "},"{":{"ha":410,"x_min":39,"x_max":371,"o":"m 39 344 l 39 383 q 153 411 121 383 q 185 504 185 439 l 185 850 q 228 958 185 915 q 338 1000 272 1000 q 371 999 360 1000 l 371 960 q 346 961 363 961 q 260 928 292 961 q 228 840 228 896 l 228 513 q 136 364 228 393 q 228 215 228 340 l 228 -111 q 260 -199 228 -167 q 346 -232 292 -232 q 371 -231 363 -232 l 371 -268 q 339 -271 360 -271 q 229 -228 274 -271 q 185 -121 185 -186 l 185 225 q 153 317 185 289 q 39 344 121 344 z "},"|":{"ha":332,"x_min":144,"x_max":188,"o":"m 188 -268 l 144 -268 l 144 997 l 188 997 l 188 -268 z "},"}":{"ha":410,"x_min":39,"x_max":371,"o":"m 371 385 l 371 346 q 257 318 289 346 q 225 225 225 290 l 225 -121 q 181 -228 225 -186 q 72 -271 138 -271 q 39 -269 50 -271 l 39 -231 q 64 -232 47 -232 q 150 -199 118 -232 q 182 -111 182 -167 l 182 217 q 274 365 182 336 q 182 514 182 389 l 182 840 q 150 928 182 896 q 64 961 118 961 q 39 960 47 961 l 39 997 q 71 1000 50 1000 q 181 958 136 1000 q 225 850 225 915 l 225 504 q 257 413 225 440 q 371 385 289 385 z "},"~":{"ha":917,"x_min":114,"x_max":801,"o":"m 636 379 q 450 454 576 379 q 276 529 324 529 q 190 497 219 529 q 156 388 160 464 l 114 388 q 159 523 115 475 q 279 571 203 571 q 401 533 332 571 q 535 458 471 496 q 640 421 599 421 q 758 563 758 421 l 801 563 q 760 426 803 472 q 636 379 718 379 z "}," ":{"ha":290,"x_min":0,"x_max":0,"o":""},"¡":{"ha":324,"x_min":96,"x_max":228,"o":"m 228 671 q 209 623 228 642 q 163 604 190 604 q 115 623 135 604 q 96 671 96 642 q 115 717 96 699 q 163 736 135 736 q 209 717 190 736 q 228 671 228 699 m 186 -268 l 139 -268 l 144 506 l 181 506 l 186 -268 z "},"¢":{"ha":758,"x_min":58,"x_max":700,"o":"m 410 -125 l 368 -125 l 368 -15 q 144 97 229 -10 q 58 364 58 203 q 144 629 58 524 q 368 740 229 735 l 368 851 l 410 851 l 410 739 q 602 655 526 731 q 700 461 678 579 l 654 461 q 565 634 633 568 q 383 700 496 700 q 182 606 260 700 q 104 364 104 511 q 182 119 104 214 q 383 25 260 25 q 564 90 497 25 q 654 265 631 156 l 700 265 q 603 71 679 147 q 410 -14 528 -6 l 410 -125 z "},"£":{"ha":725,"x_min":33,"x_max":667,"o":"m 182 142 q 104 109 131 142 q 75 0 78 76 l 33 0 q 72 133 35 85 q 175 183 110 181 l 175 443 l 51 443 l 51 481 l 175 481 l 175 674 q 240 877 175 801 q 411 953 306 953 q 585 890 517 953 q 660 710 653 826 l 614 710 q 553 861 608 808 q 411 914 499 914 q 271 848 321 914 q 221 660 221 782 l 221 481 l 513 481 l 513 443 l 221 443 l 221 179 q 371 101 274 168 q 519 33 468 33 q 624 175 624 33 l 667 175 q 629 39 668 86 q 515 -8 590 -8 q 404 29 465 -8 q 284 104 343 67 q 182 142 225 142 z "},"¤":{"ha":917,"x_min":153,"x_max":764,"o":"m 650 253 q 458 178 572 178 q 267 253 344 178 l 181 165 l 153 193 l 240 281 q 176 469 176 360 q 242 658 176 581 l 154 746 l 181 772 l 265 686 q 458 761 347 761 q 651 686 569 761 l 736 772 l 763 746 l 675 658 q 740 469 740 581 q 676 281 740 360 l 764 193 l 736 165 l 650 253 m 288 285 q 321 252 288 285 q 458 218 354 218 q 628 285 563 218 q 694 469 694 353 q 629 654 694 588 q 458 721 564 721 q 288 654 353 721 q 222 469 222 588 q 288 285 222 353 z "},"¥":{"ha":732,"x_min":39,"x_max":693,"o":"m 668 267 l 390 267 l 390 0 l 340 0 l 340 267 l 64 267 l 64 304 l 340 304 l 340 351 l 293 443 l 64 443 l 64 481 l 274 481 l 39 938 l 94 938 l 367 403 l 640 938 l 693 938 l 457 481 l 668 481 l 668 443 l 438 443 l 390 351 l 390 304 l 668 304 l 668 267 z "},"¦":{"ha":332,"x_min":144,"x_max":188,"o":"m 144 997 l 188 997 l 188 407 l 144 407 l 144 997 m 144 322 l 188 322 l 188 -268 l 144 -268 l 144 322 z "},"§":{"ha":764,"x_min":78,"x_max":686,"o":"m 78 339 q 129 473 78 417 q 269 550 181 529 q 121 739 121 603 q 192 893 121 833 q 375 953 264 953 q 565 888 490 953 q 646 725 639 824 l 601 725 q 531 861 592 808 q 375 914 469 914 q 225 868 282 914 q 168 746 168 822 q 215 630 168 671 q 365 568 261 589 l 460 549 q 632 474 578 525 q 686 336 686 422 q 635 206 686 263 q 496 126 585 149 q 620 54 582 100 q 658 -64 658 8 q 580 -219 658 -157 q 383 -281 501 -281 q 177 -217 256 -281 q 83 -46 99 -154 l 128 -46 q 209 -188 142 -135 q 383 -242 276 -242 q 547 -193 482 -242 q 611 -71 611 -144 q 565 44 611 6 q 413 104 518 83 l 313 124 q 78 339 78 169 m 125 342 q 209 202 125 249 q 414 156 293 156 q 580 208 521 156 q 639 333 639 260 q 554 472 639 428 q 344 517 469 517 q 182 466 239 517 q 125 342 125 415 z "},"¨":{"ha":694,"x_min":181,"x_max":514,"o":"m 514 899 q 498 858 514 875 q 457 842 482 842 q 415 858 432 842 q 399 899 399 875 q 415 940 399 924 q 457 956 432 956 q 498 940 482 956 q 514 899 514 924 m 296 899 q 280 858 296 875 q 239 842 264 842 q 197 858 214 842 q 181 899 181 875 q 197 940 181 924 q 239 956 213 956 q 280 940 264 956 q 296 899 296 924 z "},"©":{"ha":1093,"x_min":54,"x_max":1039,"o":"m 546 -12 q 196 128 338 -12 q 54 469 54 268 q 195 813 54 672 q 546 953 336 953 q 897 813 756 953 q 1039 469 1039 672 q 897 128 1039 268 q 546 -12 756 -12 m 227 155 q 291 90 227 155 q 546 25 354 25 q 865 155 738 25 q 993 469 993 285 q 865 785 993 654 q 546 915 738 915 q 227 785 354 915 q 100 469 100 654 q 227 155 100 285 m 726 407 l 772 407 q 694 269 758 322 q 543 215 629 215 q 374 288 442 215 q 306 469 306 361 q 374 651 306 578 q 543 724 442 724 q 694 671 631 724 q 772 532 758 618 l 726 532 q 664 642 715 599 q 544 686 613 686 q 406 624 461 686 q 351 469 351 563 q 406 314 351 375 q 544 253 460 253 q 665 297 614 253 q 726 407 715 340 z "},"ª":{"ha":594,"x_min":53,"x_max":508,"o":"m 464 354 l 464 472 q 385 378 440 413 q 256 343 329 343 q 108 389 163 343 q 53 513 53 435 q 328 685 53 685 q 461 679 382 685 l 461 733 q 419 862 461 815 q 300 908 376 908 q 170 863 217 908 q 121 735 124 817 l 76 735 q 138 889 76 831 q 299 947 199 947 q 453 892 397 947 q 508 739 508 838 l 508 354 l 464 354 m 100 514 q 144 418 100 454 q 260 382 189 382 q 406 438 351 382 q 461 588 461 494 l 461 643 q 331 649 404 649 q 100 514 100 649 z "},"«":{"ha":557,"x_min":56,"x_max":501,"o":"m 293 86 l 246 86 l 56 371 l 246 656 l 293 656 l 103 371 l 293 86 m 501 86 l 454 86 l 264 371 l 454 656 l 501 656 l 311 371 l 501 86 z "},"¬":{"ha":917,"x_min":111,"x_max":792,"o":"m 792 317 l 750 317 l 750 569 l 111 569 l 111 608 l 792 608 l 792 317 z "},"­":{"ha":503,"x_min":28,"x_max":475,"o":"m 475 364 l 28 364 l 28 406 l 475 406 l 475 364 z "},"®":{"ha":1093,"x_min":54,"x_max":1039,"o":"m 546 -12 q 196 128 338 -12 q 54 469 54 268 q 195 813 54 672 q 546 953 336 953 q 897 813 756 953 q 1039 469 1039 672 q 897 128 1039 268 q 546 -12 756 -12 m 227 155 q 291 90 227 155 q 546 25 354 25 q 865 155 738 25 q 993 469 993 285 q 865 785 993 654 q 546 915 738 915 q 227 785 354 915 q 100 469 100 654 q 227 155 100 285 m 686 225 l 553 421 l 435 421 l 435 225 l 390 225 l 390 714 l 563 714 q 683 675 639 714 q 728 568 728 636 q 693 473 728 511 q 601 424 658 435 l 739 225 l 686 225 m 557 678 l 435 678 l 435 457 l 557 457 q 651 486 617 457 q 685 568 685 515 q 651 649 685 619 q 557 678 617 678 z "},"¯":{"ha":694,"x_min":168,"x_max":528,"o":"m 528 846 l 168 846 l 168 885 l 528 885 l 528 846 z "},"°":{"ha":653,"x_min":32,"x_max":621,"o":"m 325 421 q 117 504 201 421 q 32 713 32 588 q 117 921 32 838 q 325 1004 201 1004 q 535 921 450 1004 q 621 713 621 838 q 535 504 621 588 q 325 421 450 421 m 325 458 q 506 531 438 458 q 575 713 575 603 q 506 895 575 824 q 325 967 438 967 q 146 895 214 967 q 78 713 78 824 q 146 531 78 603 q 325 458 214 458 z "},"±":{"ha":917,"x_min":111,"x_max":806,"o":"m 479 158 l 438 158 l 438 486 l 111 486 l 111 524 l 438 524 l 438 850 l 479 850 l 479 524 l 806 524 l 806 486 l 479 486 l 479 158 m 806 1 l 111 1 l 111 39 l 806 39 l 806 1 z "},"²":{"ha":444,"x_min":39,"x_max":399,"o":"m 399 751 l 399 715 l 51 715 l 51 739 l 249 950 q 327 1047 303 1008 q 351 1131 351 1085 q 313 1215 351 1181 q 217 1250 275 1250 q 117 1215 156 1250 q 79 1125 79 1179 l 39 1125 q 91 1242 40 1197 q 218 1288 142 1288 q 344 1244 294 1288 q 394 1133 394 1200 q 376 1062 394 1099 q 339 1001 358 1025 q 278 932 319 978 l 110 751 l 399 751 z "},"³":{"ha":514,"x_min":57,"x_max":453,"o":"m 453 869 q 398 753 453 797 q 256 710 343 710 q 113 753 168 710 q 57 869 58 797 l 97 869 q 144 781 100 814 q 257 747 189 747 q 368 781 326 747 q 410 869 410 814 q 364 956 410 924 q 244 989 318 989 l 186 989 l 186 1025 l 244 1025 q 343 1058 304 1025 q 382 1142 382 1090 q 346 1221 382 1190 q 251 1251 310 1251 q 156 1220 192 1251 q 115 1139 119 1189 l 75 1139 q 128 1246 78 1203 q 253 1289 178 1289 q 377 1247 329 1289 q 425 1143 425 1206 q 319 1010 425 1050 q 417 958 382 994 q 453 869 453 921 z "},"´":{"ha":694,"x_min":246,"x_max":447,"o":"m 307 825 l 246 825 l 386 997 l 447 997 l 307 825 z "},"µ":{"ha":761,"x_min":115,"x_max":646,"o":"m 164 -268 l 115 -268 l 115 726 l 163 726 l 163 265 q 219 85 163 144 q 369 25 275 25 q 536 95 474 25 q 599 278 599 165 l 599 726 l 646 726 l 646 0 l 600 0 l 600 139 q 512 28 574 69 q 369 -14 450 -14 q 160 96 218 -14 l 164 -268 z "},"¶":{"ha":846,"x_min":53,"x_max":818,"o":"m 464 -268 l 422 -268 l 422 332 q 156 403 260 321 q 53 638 53 485 q 142 859 53 779 q 375 939 232 939 l 818 939 l 818 899 l 650 899 l 650 -268 l 608 -268 l 608 899 l 464 899 l 464 -268 z "},"·":{"ha":356,"x_min":113,"x_max":243,"o":"m 243 372 q 224 326 243 344 q 178 307 206 307 q 131 326 150 307 q 113 372 113 344 q 131 420 113 401 q 178 439 150 439 q 224 420 206 439 q 243 372 243 401 z "},"¸":{"ha":694,"x_min":213,"x_max":481,"o":"m 481 -168 q 444 -245 481 -215 q 354 -275 407 -275 q 259 -246 299 -275 q 213 -165 219 -217 l 254 -165 q 288 -221 260 -201 q 354 -240 315 -240 q 413 -220 390 -240 q 435 -169 435 -200 q 395 -97 435 -119 q 304 -82 356 -75 l 336 10 l 376 10 l 353 -56 q 444 -88 407 -57 q 481 -168 481 -119 z "},"¹":{"ha":292,"x_min":15,"x_max":178,"o":"m 178 715 l 136 715 l 136 1243 l 15 1243 l 15 1279 l 178 1279 l 178 715 z "},"º":{"ha":675,"x_min":61,"x_max":614,"o":"m 338 343 q 138 428 215 343 q 61 646 61 513 q 138 863 61 778 q 338 947 215 947 q 536 863 458 947 q 614 646 614 778 q 536 428 614 513 q 338 343 458 343 m 174 457 q 206 421 174 457 q 338 385 238 385 q 501 456 438 385 q 565 646 565 528 q 501 833 565 761 q 338 906 438 906 q 174 833 238 906 q 110 646 110 761 q 174 457 110 529 z "},"»":{"ha":557,"x_min":56,"x_max":501,"o":"m 56 656 l 103 656 l 293 371 l 103 86 l 56 86 l 246 371 l 56 656 m 264 656 l 311 656 l 501 371 l 311 86 l 264 86 l 454 371 l 264 656 z "},"¼":{"ha":860,"x_min":15,"x_max":815,"o":"m 178 375 l 136 375 l 136 903 l 15 903 l 15 939 l 178 939 l 178 375 m 150 0 l 106 0 l 631 939 l 676 939 l 150 0 m 815 142 l 736 142 l 736 0 l 694 0 l 694 142 l 396 142 l 396 167 l 710 564 l 736 564 l 736 178 l 815 178 l 815 142 m 447 178 l 694 178 l 694 489 l 447 178 z "},"½":{"ha":935,"x_min":15,"x_max":889,"o":"m 178 375 l 136 375 l 136 903 l 15 903 l 15 939 l 178 939 l 178 375 m 150 0 l 106 0 l 631 939 l 676 939 l 150 0 m 889 36 l 889 0 l 542 0 l 542 24 l 739 235 q 817 331 793 293 q 842 415 842 369 q 803 500 842 465 q 707 535 765 535 q 608 499 646 535 q 569 410 569 464 l 529 410 q 581 527 531 482 q 708 572 632 572 q 835 528 785 572 q 885 418 885 485 q 867 347 885 383 q 829 286 849 310 q 768 217 810 263 l 600 36 l 889 36 z "},"¾":{"ha":1096,"x_min":57,"x_max":1051,"o":"m 453 529 q 398 413 453 457 q 256 369 343 369 q 113 413 168 369 q 57 529 58 457 l 97 529 q 144 440 100 474 q 257 407 189 407 q 368 440 326 407 q 410 529 410 474 q 364 616 410 583 q 244 649 318 649 l 186 649 l 186 685 l 244 685 q 343 717 304 685 q 382 801 382 750 q 346 881 382 850 q 251 911 310 911 q 156 880 192 911 q 115 799 119 849 l 75 799 q 128 906 78 863 q 253 949 178 949 q 377 907 329 949 q 425 803 425 865 q 397 724 425 758 q 319 669 369 689 q 417 617 382 654 q 453 529 453 581 m 372 0 l 328 0 l 853 939 l 899 939 l 372 0 m 1051 142 l 972 142 l 972 0 l 931 0 l 931 142 l 632 142 l 632 167 l 946 564 l 972 564 l 972 178 l 1051 178 l 1051 142 m 683 178 l 931 178 l 931 489 l 683 178 z "},"¿":{"ha":556,"x_min":25,"x_max":531,"o":"m 236 671 q 256 717 236 699 q 303 736 275 736 q 349 717 331 736 q 368 671 368 699 q 349 623 368 642 q 303 604 331 604 q 256 623 275 604 q 236 671 236 642 m 483 -50 l 531 -50 q 457 -217 526 -153 q 281 -282 388 -282 q 94 -217 164 -282 q 25 -53 25 -151 q 53 60 25 10 q 147 169 82 111 l 203 219 q 280 326 261 272 q 293 506 299 379 l 332 506 q 326 324 340 383 q 249 206 311 264 l 183 144 q 98 47 124 89 q 72 -47 72 6 q 130 -184 72 -129 q 281 -239 188 -239 q 426 -186 369 -239 q 483 -50 483 -133 z "},"À":{"ha":935,"x_min":47,"x_max":888,"o":"m 496 1096 l 435 1096 l 293 1268 l 354 1268 l 496 1096 m 839 0 l 718 308 l 214 308 l 93 0 l 47 0 l 442 997 l 494 997 l 888 0 l 839 0 m 467 949 l 231 350 l 701 350 l 467 949 z "},"Á":{"ha":935,"x_min":47,"x_max":888,"o":"m 499 1096 l 438 1096 l 578 1268 l 639 1268 l 499 1096 m 839 0 l 718 308 l 214 308 l 93 0 l 47 0 l 442 997 l 494 997 l 888 0 l 839 0 m 467 949 l 231 350 l 701 350 l 467 949 z "},"Â":{"ha":935,"x_min":47,"x_max":888,"o":"m 326 1096 l 268 1096 l 447 1268 l 486 1268 l 667 1096 l 608 1096 l 467 1229 l 326 1096 m 839 0 l 718 308 l 214 308 l 93 0 l 47 0 l 442 997 l 494 997 l 888 0 l 839 0 m 467 949 l 231 350 l 701 350 l 467 949 z "},"Ã":{"ha":935,"x_min":47,"x_max":888,"o":"m 293 1096 l 254 1096 q 281 1217 251 1174 q 367 1261 311 1261 q 425 1242 397 1261 q 470 1202 453 1224 q 511 1162 488 1181 q 558 1143 535 1143 q 631 1268 631 1143 l 671 1268 q 643 1147 674 1190 q 558 1103 613 1103 q 500 1122 528 1103 q 455 1162 472 1140 q 414 1202 438 1183 q 367 1221 390 1221 q 293 1096 293 1221 m 839 0 l 718 308 l 214 308 l 93 0 l 47 0 l 442 997 l 494 997 l 888 0 l 839 0 m 467 949 l 231 350 l 701 350 l 467 949 z "},"Ä":{"ha":935,"x_min":47,"x_max":888,"o":"m 633 1169 q 617 1129 633 1146 q 576 1113 601 1113 q 535 1129 551 1113 q 518 1169 518 1146 q 535 1210 518 1194 q 576 1226 551 1226 q 617 1210 601 1226 q 633 1169 633 1194 m 415 1169 q 399 1129 415 1146 q 358 1113 383 1113 q 317 1129 333 1113 q 300 1169 300 1146 q 316 1210 300 1194 q 358 1226 332 1226 q 399 1210 383 1226 q 415 1169 415 1194 m 839 0 l 718 308 l 214 308 l 93 0 l 47 0 l 442 997 l 494 997 l 888 0 l 839 0 m 467 949 l 231 350 l 701 350 l 467 949 z "},"Å":{"ha":935,"x_min":47,"x_max":888,"o":"m 569 1130 q 548 1110 569 1130 q 467 1090 526 1090 q 365 1130 407 1090 q 324 1225 324 1169 q 365 1320 324 1281 q 467 1360 407 1360 q 569 1320 526 1360 q 611 1225 611 1281 q 569 1130 611 1169 m 467 1126 q 540 1153 511 1126 q 568 1225 568 1179 q 540 1297 568 1271 q 467 1322 511 1322 q 395 1297 424 1322 q 367 1225 367 1271 q 395 1153 367 1179 q 467 1126 424 1126 m 839 0 l 718 308 l 214 308 l 93 0 l 47 0 l 442 997 l 494 997 l 888 0 l 839 0 m 467 949 l 231 350 l 701 350 l 467 949 z "},"Æ":{"ha":1183,"x_min":19,"x_max":1093,"o":"m 603 308 l 247 308 l 68 0 l 19 0 l 599 997 l 1083 997 l 1083 956 l 651 956 l 651 536 l 1042 536 l 1042 494 l 651 494 l 651 42 l 1093 42 l 1093 0 l 603 0 l 603 308 m 603 350 l 603 921 l 271 350 l 603 350 z "},"Ç":{"ha":1060,"x_min":61,"x_max":999,"o":"m 668 -168 q 631 -245 668 -215 q 542 -275 594 -275 q 447 -246 486 -275 q 400 -165 407 -217 l 442 -165 q 475 -221 447 -201 q 542 -240 503 -240 q 600 -220 578 -240 q 622 -169 622 -200 q 583 -97 622 -119 q 492 -82 543 -75 l 514 -19 q 190 138 318 -10 q 61 500 61 286 q 199 869 61 721 q 542 1018 336 1018 q 840 913 713 1018 q 999 638 968 808 l 949 638 q 808 880 921 785 q 542 975 694 975 q 234 839 357 975 q 111 500 111 703 q 234 158 111 294 q 542 22 357 22 q 810 118 696 22 q 949 361 924 214 l 999 361 q 844 89 968 194 q 553 -21 719 -17 l 540 -56 q 631 -88 594 -57 q 668 -168 668 -119 z "},"È":{"ha":769,"x_min":118,"x_max":679,"o":"m 431 1096 l 369 1096 l 228 1268 l 289 1268 l 431 1096 m 679 42 l 679 0 l 118 0 l 118 997 l 669 997 l 669 956 l 167 956 l 167 536 l 628 536 l 628 494 l 167 494 l 167 42 l 679 42 z "},"É":{"ha":769,"x_min":118,"x_max":679,"o":"m 433 1096 l 372 1096 l 513 1268 l 574 1268 l 433 1096 m 679 42 l 679 0 l 118 0 l 118 997 l 669 997 l 669 956 l 167 956 l 167 536 l 628 536 l 628 494 l 167 494 l 167 42 l 679 42 z "},"Ê":{"ha":769,"x_min":118,"x_max":679,"o":"m 261 1096 l 203 1096 l 382 1268 l 421 1268 l 601 1096 l 543 1096 l 401 1229 l 261 1096 m 679 42 l 679 0 l 118 0 l 118 997 l 669 997 l 669 956 l 167 956 l 167 536 l 628 536 l 628 494 l 167 494 l 167 42 l 679 42 z "},"Ë":{"ha":769,"x_min":118,"x_max":679,"o":"m 568 1169 q 552 1129 568 1146 q 511 1113 536 1113 q 469 1129 486 1113 q 453 1169 453 1146 q 469 1210 453 1194 q 511 1226 486 1226 q 552 1210 536 1226 q 568 1169 568 1194 m 350 1169 q 334 1129 350 1146 q 293 1113 318 1113 q 251 1129 268 1113 q 235 1169 235 1146 q 251 1210 235 1194 q 293 1226 267 1226 q 334 1210 318 1226 q 350 1169 350 1194 m 679 42 l 679 0 l 118 0 l 118 997 l 669 997 l 669 956 l 167 956 l 167 536 l 628 536 l 628 494 l 167 494 l 167 42 l 679 42 z "},"Ì":{"ha":285,"x_min":-18,"x_max":171,"o":"m 171 1096 l 110 1096 l -18 1268 l 43 1268 l 171 1096 m 167 0 l 118 0 l 118 997 l 167 997 l 167 0 z "},"Í":{"ha":285,"x_min":113,"x_max":300,"o":"m 174 1096 l 113 1096 l 239 1268 l 300 1268 l 174 1096 m 167 0 l 118 0 l 118 997 l 167 997 l 167 0 z "},"Î":{"ha":285,"x_min":-42,"x_max":325,"o":"m 17 1096 l -42 1096 l 121 1268 l 163 1268 l 325 1096 l 267 1096 l 142 1229 l 17 1096 m 167 0 l 118 0 l 118 997 l 167 997 l 167 0 z "},"Ï":{"ha":285,"x_min":-12,"x_max":297,"o":"m 297 1169 q 282 1129 297 1146 q 243 1113 267 1113 q 204 1129 219 1113 q 189 1169 189 1146 q 204 1210 189 1194 q 243 1226 219 1226 q 282 1210 267 1226 q 297 1169 297 1194 m 97 1169 q 81 1129 97 1146 q 43 1113 65 1113 q 3 1129 19 1113 q -12 1169 -12 1146 q 3 1210 -12 1194 q 43 1226 19 1226 q 82 1210 67 1226 q 97 1169 97 1194 m 167 0 l 118 0 l 118 997 l 167 997 l 167 0 z "},"Ð":{"ha":982,"x_min":8,"x_max":921,"o":"m 431 0 l 185 0 l 185 496 l 8 496 l 8 535 l 185 535 l 185 997 l 431 997 q 793 862 665 997 q 921 501 921 726 q 790 140 921 281 q 431 0 660 0 m 460 496 l 233 496 l 233 42 l 432 42 q 756 169 639 42 q 872 501 872 296 q 757 832 872 708 q 432 956 642 956 l 233 956 l 233 535 l 460 535 l 460 496 z "},"Ñ":{"ha":990,"x_min":118,"x_max":872,"o":"m 322 1096 l 283 1096 q 310 1217 281 1174 q 396 1261 340 1261 q 454 1242 426 1261 q 499 1202 482 1224 q 540 1162 517 1181 q 588 1143 564 1143 q 660 1268 660 1143 l 700 1268 q 672 1147 703 1190 q 588 1103 642 1103 q 529 1122 557 1103 q 484 1162 501 1140 q 443 1202 467 1183 q 396 1221 419 1221 q 322 1096 322 1221 m 813 0 l 165 929 l 165 0 l 118 0 l 118 997 l 175 997 l 825 65 l 825 997 l 872 997 l 872 0 l 813 0 z "},"Ò":{"ha":1121,"x_min":61,"x_max":1060,"o":"m 590 1096 l 529 1096 l 388 1268 l 449 1268 l 590 1096 m 561 -21 q 203 131 346 -21 q 61 500 61 282 q 203 867 61 717 q 561 1018 346 1018 q 917 867 775 1018 q 1060 500 1060 717 q 917 131 1060 283 q 561 -21 775 -21 m 239 160 q 303 91 239 160 q 561 22 367 22 q 883 160 756 22 q 1010 500 1010 297 q 883 839 1010 703 q 561 975 757 975 q 238 839 365 975 q 111 500 111 703 q 239 160 111 297 z "},"Ó":{"ha":1121,"x_min":61,"x_max":1060,"o":"m 593 1096 l 532 1096 l 672 1268 l 733 1268 l 593 1096 m 561 -21 q 203 131 346 -21 q 61 500 61 282 q 203 867 61 717 q 561 1018 346 1018 q 917 867 775 1018 q 1060 500 1060 717 q 917 131 1060 283 q 561 -21 775 -21 m 239 160 q 303 91 239 160 q 561 22 367 22 q 883 160 756 22 q 1010 500 1010 297 q 883 839 1010 703 q 561 975 757 975 q 238 839 365 975 q 111 500 111 703 q 239 160 111 297 z "},"Ô":{"ha":1121,"x_min":61,"x_max":1060,"o":"m 421 1096 l 363 1096 l 542 1268 l 581 1268 l 761 1096 l 703 1096 l 561 1229 l 421 1096 m 561 -21 q 203 131 346 -21 q 61 500 61 282 q 203 867 61 717 q 561 1018 346 1018 q 917 867 775 1018 q 1060 500 1060 717 q 917 131 1060 283 q 561 -21 775 -21 m 239 160 q 303 91 239 160 q 561 22 367 22 q 883 160 756 22 q 1010 500 1010 297 q 883 839 1010 703 q 561 975 757 975 q 238 839 365 975 q 111 500 111 703 q 239 160 111 297 z "},"Õ":{"ha":1121,"x_min":61,"x_max":1060,"o":"m 388 1096 l 349 1096 q 376 1217 346 1174 q 461 1261 406 1261 q 519 1242 492 1261 q 565 1202 547 1224 q 606 1162 582 1181 q 653 1143 629 1143 q 725 1268 725 1143 l 765 1268 q 738 1147 768 1190 q 653 1103 707 1103 q 594 1122 622 1103 q 549 1162 567 1140 q 508 1202 532 1183 q 461 1221 485 1221 q 388 1096 388 1221 m 561 -21 q 203 131 346 -21 q 61 500 61 282 q 203 867 61 717 q 561 1018 346 1018 q 917 867 775 1018 q 1060 500 1060 717 q 917 131 1060 283 q 561 -21 775 -21 m 239 160 q 303 91 239 160 q 561 22 367 22 q 883 160 756 22 q 1010 500 1010 297 q 883 839 1010 703 q 561 975 757 975 q 238 839 365 975 q 111 500 111 703 q 239 160 111 297 z "},"Ö":{"ha":1121,"x_min":61,"x_max":1060,"o":"m 728 1169 q 712 1129 728 1146 q 671 1113 696 1113 q 629 1129 646 1113 q 613 1169 613 1146 q 629 1210 613 1194 q 671 1226 646 1226 q 712 1210 696 1226 q 728 1169 728 1194 m 510 1169 q 494 1129 510 1146 q 453 1113 478 1113 q 411 1129 428 1113 q 394 1169 394 1146 q 410 1210 394 1194 q 453 1226 426 1226 q 494 1210 478 1226 q 510 1169 510 1194 m 561 -21 q 203 131 346 -21 q 61 500 61 282 q 203 867 61 717 q 561 1018 346 1018 q 917 867 775 1018 q 1060 500 1060 717 q 917 131 1060 283 q 561 -21 775 -21 m 239 160 q 303 91 239 160 q 561 22 367 22 q 883 160 756 22 q 1010 500 1010 297 q 883 839 1010 703 q 561 975 757 975 q 238 839 365 975 q 111 500 111 703 q 239 160 111 297 z "},"×":{"ha":917,"x_min":171,"x_max":747,"o":"m 199 181 l 171 210 l 431 469 l 171 729 l 199 757 l 458 497 l 718 757 l 746 728 l 488 469 l 747 210 l 718 181 l 458 440 l 199 181 z "},"Ø":{"ha":1121,"x_min":61,"x_max":1060,"o":"m 153 0 l 99 0 l 208 126 q 61 500 61 278 q 203 867 61 717 q 561 1018 346 1018 q 885 899 750 1018 l 971 997 l 1025 997 l 914 871 q 1060 500 1060 721 q 917 131 1060 283 q 561 -21 775 -21 q 239 97 375 -21 l 153 0 m 111 500 q 239 160 111 296 l 856 865 q 561 975 735 975 q 238 839 365 975 q 111 500 111 703 m 561 22 q 883 160 756 22 q 1010 500 1010 297 q 885 838 1010 701 l 268 132 q 561 22 389 22 z "},"Ù":{"ha":911,"x_min":115,"x_max":796,"o":"m 485 1096 l 424 1096 l 282 1268 l 343 1268 l 485 1096 m 796 997 l 796 322 q 702 71 796 163 q 456 -21 608 -21 q 209 71 303 -21 q 115 322 115 163 l 115 997 l 164 997 l 164 317 q 247 103 164 183 q 456 22 331 22 q 665 102 581 22 q 749 317 749 182 l 749 997 l 796 997 z "},"Ú":{"ha":911,"x_min":115,"x_max":796,"o":"m 488 1096 l 426 1096 l 567 1268 l 628 1268 l 488 1096 m 796 997 l 796 322 q 702 71 796 163 q 456 -21 608 -21 q 209 71 303 -21 q 115 322 115 163 l 115 997 l 164 997 l 164 317 q 247 103 164 183 q 456 22 331 22 q 665 102 581 22 q 749 317 749 182 l 749 997 l 796 997 z "},"Û":{"ha":911,"x_min":115,"x_max":796,"o":"m 315 1096 l 257 1096 l 436 1268 l 475 1268 l 656 1096 l 597 1096 l 456 1229 l 315 1096 m 796 997 l 796 322 q 702 71 796 163 q 456 -21 608 -21 q 209 71 303 -21 q 115 322 115 163 l 115 997 l 164 997 l 164 317 q 247 103 164 183 q 456 22 331 22 q 665 102 581 22 q 749 317 749 182 l 749 997 l 796 997 z "},"Ü":{"ha":911,"x_min":115,"x_max":796,"o":"m 622 1169 q 606 1129 622 1146 q 565 1113 590 1113 q 524 1129 540 1113 q 507 1169 507 1146 q 524 1210 507 1194 q 565 1226 540 1226 q 606 1210 590 1226 q 622 1169 622 1194 m 404 1169 q 388 1129 404 1146 q 347 1113 372 1113 q 306 1129 322 1113 q 289 1169 289 1146 q 305 1210 289 1194 q 347 1226 321 1226 q 388 1210 372 1226 q 404 1169 404 1194 m 796 997 l 796 322 q 702 71 796 163 q 456 -21 608 -21 q 209 71 303 -21 q 115 322 115 163 l 115 997 l 164 997 l 164 317 q 247 103 164 183 q 456 22 331 22 q 665 102 581 22 q 749 317 749 182 l 749 997 l 796 997 z "},"Ý":{"ha":819,"x_min":17,"x_max":803,"o":"m 442 1096 l 381 1096 l 521 1268 l 582 1268 l 442 1096 m 433 374 l 433 0 l 385 0 l 385 374 l 17 997 l 71 997 l 410 421 l 750 997 l 803 997 l 433 374 z "},"Þ":{"ha":790,"x_min":118,"x_max":738,"o":"m 417 197 l 167 197 l 167 0 l 118 0 l 118 997 l 167 997 l 167 806 l 417 806 q 649 724 560 806 q 738 501 738 643 q 649 278 738 358 q 417 197 560 197 m 415 764 l 167 764 l 167 239 l 415 239 q 615 308 542 239 q 689 501 689 376 q 615 695 689 626 q 415 764 542 764 z "},"ß":{"ha":808,"x_min":-7,"x_max":746,"o":"m 746 272 q 665 66 746 146 q 457 -14 585 -14 q 367 -6 396 -14 l 367 35 q 454 25 399 25 q 632 91 565 25 q 699 267 699 157 q 622 433 699 371 q 419 496 546 496 l 369 496 l 369 535 l 419 535 q 590 599 525 535 q 654 767 654 664 q 597 915 654 860 q 442 971 539 971 q 283 906 343 971 q 224 731 224 840 l 224 0 l 176 0 l 176 689 l -7 689 l -7 726 l 176 726 q 251 931 176 851 q 443 1010 325 1010 q 630 942 558 1010 q 701 767 701 875 q 652 613 701 681 q 521 518 603 544 q 688 430 629 494 q 746 272 746 365 z "},"à":{"ha":724,"x_min":67,"x_max":615,"o":"m 392 825 l 331 825 l 189 997 l 250 997 l 392 825 m 569 0 l 569 154 q 471 31 540 76 q 313 -14 401 -14 q 133 43 200 -14 q 67 196 67 100 q 403 411 67 411 q 568 403 465 411 l 568 474 q 515 641 568 581 q 365 701 461 701 q 201 640 263 701 q 140 475 140 579 l 96 475 q 169 667 96 594 q 364 740 243 740 q 549 672 482 740 q 615 482 615 604 l 615 0 l 569 0 m 114 197 q 169 72 114 119 q 313 25 224 25 q 499 99 429 25 q 568 296 568 172 l 568 367 q 404 374 478 374 q 114 197 114 374 z "},"á":{"ha":724,"x_min":67,"x_max":615,"o":"m 394 825 l 333 825 l 474 997 l 535 997 l 394 825 m 569 0 l 569 154 q 471 31 540 76 q 313 -14 401 -14 q 133 43 200 -14 q 67 196 67 100 q 403 411 67 411 q 568 403 465 411 l 568 474 q 515 641 568 581 q 365 701 461 701 q 201 640 263 701 q 140 475 140 579 l 96 475 q 169 667 96 594 q 364 740 243 740 q 549 672 482 740 q 615 482 615 604 l 615 0 l 569 0 m 114 197 q 169 72 114 119 q 313 25 224 25 q 499 99 429 25 q 568 296 568 172 l 568 367 q 404 374 478 374 q 114 197 114 374 z "},"â":{"ha":724,"x_min":67,"x_max":615,"o":"m 222 825 l 164 825 l 343 997 l 382 997 l 563 825 l 504 825 l 363 958 l 222 825 m 569 0 l 569 154 q 471 31 540 76 q 313 -14 401 -14 q 133 43 200 -14 q 67 196 67 100 q 403 411 67 411 q 568 403 465 411 l 568 474 q 515 641 568 581 q 365 701 461 701 q 201 640 263 701 q 140 475 140 579 l 96 475 q 169 667 96 594 q 364 740 243 740 q 549 672 482 740 q 615 482 615 604 l 615 0 l 569 0 m 114 197 q 169 72 114 119 q 313 25 224 25 q 499 99 429 25 q 568 296 568 172 l 568 367 q 404 374 478 374 q 114 197 114 374 z "},"ã":{"ha":724,"x_min":67,"x_max":615,"o":"m 189 825 l 150 825 q 177 947 147 903 q 263 990 207 990 q 321 972 293 990 q 366 931 349 953 q 407 891 383 910 q 454 872 431 872 q 526 997 526 872 l 567 997 q 539 876 569 919 q 454 832 508 832 q 396 851 424 832 q 351 891 368 869 q 310 931 333 913 q 263 950 286 950 q 189 825 189 950 m 569 0 l 569 154 q 471 31 540 76 q 313 -14 401 -14 q 133 43 200 -14 q 67 196 67 100 q 403 411 67 411 q 568 403 465 411 l 568 474 q 515 641 568 581 q 365 701 461 701 q 201 640 263 701 q 140 475 140 579 l 96 475 q 169 667 96 594 q 364 740 243 740 q 549 672 482 740 q 615 482 615 604 l 615 0 l 569 0 m 114 197 q 169 72 114 119 q 313 25 224 25 q 499 99 429 25 q 568 296 568 172 l 568 367 q 404 374 478 374 q 114 197 114 374 z "},"ä":{"ha":724,"x_min":67,"x_max":615,"o":"m 529 899 q 513 858 529 875 q 472 842 497 842 q 431 858 447 842 q 414 899 414 875 q 431 940 414 924 q 472 956 447 956 q 513 940 497 956 q 529 899 529 924 m 311 899 q 295 858 311 875 q 254 842 279 842 q 213 858 229 842 q 196 899 196 875 q 212 940 196 924 q 254 956 228 956 q 295 940 279 956 q 311 899 311 924 m 569 0 l 569 154 q 471 31 540 76 q 313 -14 401 -14 q 133 43 200 -14 q 67 196 67 100 q 403 411 67 411 q 568 403 465 411 l 568 474 q 515 641 568 581 q 365 701 461 701 q 201 640 263 701 q 140 475 140 579 l 96 475 q 169 667 96 594 q 364 740 243 740 q 549 672 482 740 q 615 482 615 604 l 615 0 l 569 0 m 114 197 q 169 72 114 119 q 313 25 224 25 q 499 99 429 25 q 568 296 568 172 l 568 367 q 404 374 478 374 q 114 197 114 374 z "},"å":{"ha":724,"x_min":67,"x_max":615,"o":"m 465 859 q 443 839 465 859 q 363 819 422 819 q 261 859 303 819 q 219 954 219 899 q 261 1049 219 1010 q 363 1089 303 1089 q 465 1049 422 1089 q 507 954 507 1010 q 465 859 507 899 m 363 856 q 435 882 407 856 q 464 954 464 908 q 435 1026 464 1000 q 363 1051 407 1051 q 291 1026 319 1051 q 263 954 263 1000 q 291 882 263 908 q 363 856 319 856 m 569 0 l 569 154 q 471 31 540 76 q 313 -14 401 -14 q 133 43 200 -14 q 67 196 67 100 q 403 411 67 411 q 568 403 465 411 l 568 474 q 515 641 568 581 q 365 701 461 701 q 201 640 263 701 q 140 475 140 579 l 96 475 q 169 667 96 594 q 364 740 243 740 q 549 672 482 740 q 615 482 615 604 l 615 0 l 569 0 m 114 197 q 169 72 114 119 q 313 25 224 25 q 499 99 429 25 q 568 296 568 172 l 568 367 q 404 374 478 374 q 114 197 114 374 z "},"æ":{"ha":1238,"x_min":67,"x_max":1179,"o":"m 67 193 q 151 349 67 294 q 390 403 235 403 l 568 403 l 568 461 q 513 638 568 575 q 360 701 458 701 q 203 640 263 701 q 144 476 144 578 l 100 476 q 172 667 100 593 q 360 740 244 740 q 520 692 457 740 q 604 554 583 644 q 716 690 643 640 q 875 740 789 740 q 1098 637 1015 740 q 1175 365 1181 533 l 615 365 q 689 117 617 208 q 882 25 761 25 q 1048 83 982 25 q 1133 244 1114 142 l 1179 244 q 1078 56 1158 125 q 882 -14 999 -14 q 703 47 778 -14 q 594 218 628 107 q 496 48 571 110 q 311 -14 421 -14 q 135 44 203 -14 q 67 193 67 101 m 875 701 q 694 617 768 701 q 615 403 621 532 l 1126 403 q 1054 623 1121 544 q 875 701 988 701 m 114 193 q 170 72 114 119 q 313 25 226 25 q 498 99 428 25 q 568 297 568 174 l 568 365 l 390 365 q 114 193 114 365 z "},"ç":{"ha":731,"x_min":58,"x_max":672,"o":"m 496 -168 q 459 -245 496 -215 q 369 -275 422 -275 q 274 -246 314 -275 q 228 -165 235 -217 l 269 -165 q 303 -221 275 -201 q 369 -240 331 -240 q 428 -220 406 -240 q 450 -169 450 -200 q 410 -97 450 -119 q 319 -82 371 -75 l 343 -14 q 137 101 215 -3 q 58 364 58 204 q 145 635 58 531 q 369 740 232 740 q 568 667 488 740 q 672 461 649 593 l 626 461 q 538 638 606 575 q 369 701 469 701 q 179 607 253 701 q 106 364 106 513 q 179 119 106 214 q 369 24 253 24 q 539 88 471 24 q 628 265 607 151 l 672 265 q 574 64 651 139 q 383 -15 497 -11 l 368 -56 q 459 -88 422 -57 q 496 -168 496 -119 z "},"è":{"ha":754,"x_min":58,"x_max":696,"o":"m 411 825 l 350 825 l 208 997 l 269 997 l 411 825 m 385 -15 q 148 91 238 -15 q 58 371 58 197 q 149 635 58 529 q 378 740 240 740 q 610 633 524 740 q 692 353 697 526 l 104 353 q 185 113 110 201 q 385 24 260 24 q 560 83 490 24 q 650 244 631 142 l 696 244 q 591 55 675 125 q 385 -15 507 -15 m 378 701 q 186 615 263 701 q 104 392 110 529 l 643 392 q 566 619 636 538 q 378 701 496 701 z "},"é":{"ha":754,"x_min":58,"x_max":696,"o":"m 414 825 l 353 825 l 493 997 l 554 997 l 414 825 m 385 -15 q 148 91 238 -15 q 58 371 58 197 q 149 635 58 529 q 378 740 240 740 q 610 633 524 740 q 692 353 697 526 l 104 353 q 185 113 110 201 q 385 24 260 24 q 560 83 490 24 q 650 244 631 142 l 696 244 q 591 55 675 125 q 385 -15 507 -15 m 378 701 q 186 615 263 701 q 104 392 110 529 l 643 392 q 566 619 636 538 q 378 701 496 701 z "},"ê":{"ha":754,"x_min":58,"x_max":696,"o":"m 242 825 l 183 825 l 363 997 l 401 997 l 582 825 l 524 825 l 382 958 l 242 825 m 385 -15 q 148 91 238 -15 q 58 371 58 197 q 149 635 58 529 q 378 740 240 740 q 610 633 524 740 q 692 353 697 526 l 104 353 q 185 113 110 201 q 385 24 260 24 q 560 83 490 24 q 650 244 631 142 l 696 244 q 591 55 675 125 q 385 -15 507 -15 m 378 701 q 186 615 263 701 q 104 392 110 529 l 643 392 q 566 619 636 538 q 378 701 496 701 z "},"ë":{"ha":754,"x_min":58,"x_max":696,"o":"m 549 899 q 533 858 549 875 q 492 842 517 842 q 450 858 467 842 q 433 899 433 875 q 450 940 433 924 q 492 956 467 956 q 533 940 517 956 q 549 899 549 924 m 331 899 q 315 858 331 875 q 274 842 299 842 q 232 858 249 842 q 215 899 215 875 q 231 940 215 924 q 274 956 247 956 q 315 940 299 956 q 331 899 331 924 m 385 -15 q 148 91 238 -15 q 58 371 58 197 q 149 635 58 529 q 378 740 240 740 q 610 633 524 740 q 692 353 697 526 l 104 353 q 185 113 110 201 q 385 24 260 24 q 560 83 490 24 q 650 244 631 142 l 696 244 q 591 55 675 125 q 385 -15 507 -15 m 378 701 q 186 615 263 701 q 104 392 110 529 l 643 392 q 566 619 636 538 q 378 701 496 701 z "},"ì":{"ha":278,"x_min":-22,"x_max":167,"o":"m 167 825 l 106 825 l -22 997 l 39 997 l 167 825 m 163 0 l 115 0 l 115 726 l 163 726 l 163 0 z "},"í":{"ha":278,"x_min":108,"x_max":296,"o":"m 169 825 l 108 825 l 235 997 l 296 997 l 169 825 m 163 0 l 115 0 l 115 726 l 163 726 l 163 0 z "},"î":{"ha":278,"x_min":-46,"x_max":321,"o":"m 13 825 l -46 825 l 117 997 l 158 997 l 321 825 l 263 825 l 138 958 l 13 825 m 163 0 l 115 0 l 115 726 l 163 726 l 163 0 z "},"ï":{"ha":278,"x_min":-17,"x_max":293,"o":"m 293 899 q 278 858 293 875 q 239 842 263 842 q 200 858 215 842 q 185 899 185 875 q 200 940 185 924 q 239 956 215 956 q 278 940 263 956 q 293 899 293 924 m 93 899 q 77 858 93 875 q 39 842 61 842 q -1 858 15 842 q -17 899 -17 875 q -1 940 -17 924 q 39 956 15 956 q 78 940 63 956 q 93 899 93 924 m 163 0 l 115 0 l 115 726 l 163 726 l 163 0 z "},"ð":{"ha":782,"x_min":58,"x_max":724,"o":"m 58 361 q 148 633 58 526 q 378 739 238 739 q 553 683 475 739 l 404 871 l 232 790 l 232 832 l 381 901 l 304 997 l 357 997 l 418 919 l 590 1000 l 592 958 l 442 889 l 606 681 q 697 523 669 599 q 724 347 724 447 q 631 87 724 188 q 390 -14 538 -14 q 152 92 246 -14 q 58 361 58 199 m 106 361 q 184 117 106 210 q 392 25 263 25 q 599 113 522 25 q 676 347 676 200 q 599 603 676 508 q 392 699 522 699 q 183 608 260 699 q 106 361 106 517 z "},"ñ":{"ha":768,"x_min":115,"x_max":660,"o":"m 215 825 l 176 825 q 203 947 174 903 q 289 990 233 990 q 347 972 319 990 q 392 931 375 953 q 433 891 410 910 q 481 872 457 872 q 553 997 553 872 l 593 997 q 565 876 596 919 q 481 832 535 832 q 422 851 450 832 q 377 891 394 869 q 336 931 360 913 q 289 950 313 950 q 215 825 215 950 m 163 438 l 163 0 l 115 0 l 115 726 l 161 726 l 161 572 q 262 694 194 647 q 410 740 329 740 q 593 670 526 740 q 660 472 660 600 l 660 0 l 613 0 l 613 456 q 558 638 613 574 q 401 701 503 701 q 233 624 303 701 q 163 438 163 547 z "},"ò":{"ha":783,"x_min":58,"x_max":725,"o":"m 421 825 l 360 825 l 218 997 l 279 997 l 421 825 m 632 91 q 585 39 632 91 q 392 -14 539 -14 q 151 91 244 -14 q 58 364 58 196 q 151 634 58 529 q 392 739 244 739 q 632 634 539 739 q 725 364 725 529 q 632 91 725 196 m 185 119 q 225 72 185 119 q 392 25 265 25 q 598 119 518 25 q 678 364 678 213 q 598 607 678 514 q 392 700 518 700 q 185 607 265 700 q 106 364 106 514 q 185 119 106 213 z "},"ó":{"ha":783,"x_min":58,"x_max":725,"o":"m 424 825 l 363 825 l 503 997 l 564 997 l 424 825 m 632 91 q 585 39 632 91 q 392 -14 539 -14 q 151 91 244 -14 q 58 364 58 196 q 151 634 58 529 q 392 739 244 739 q 632 634 539 739 q 725 364 725 529 q 632 91 725 196 m 185 119 q 225 72 185 119 q 392 25 265 25 q 598 119 518 25 q 678 364 678 213 q 598 607 678 514 q 392 700 518 700 q 185 607 265 700 q 106 364 106 514 q 185 119 106 213 z "},"ô":{"ha":783,"x_min":58,"x_max":725,"o":"m 251 825 l 193 825 l 372 997 l 411 997 l 592 825 l 533 825 l 392 958 l 251 825 m 632 91 q 585 39 632 91 q 392 -14 539 -14 q 151 91 244 -14 q 58 364 58 196 q 151 634 58 529 q 392 739 244 739 q 632 634 539 739 q 725 364 725 529 q 632 91 725 196 m 185 119 q 225 72 185 119 q 392 25 265 25 q 598 119 518 25 q 678 364 678 213 q 598 607 678 514 q 392 700 518 700 q 185 607 265 700 q 106 364 106 514 q 185 119 106 213 z "},"õ":{"ha":783,"x_min":58,"x_max":725,"o":"m 218 825 l 179 825 q 206 947 176 903 q 292 990 236 990 q 350 972 322 990 q 395 931 378 953 q 436 891 413 910 q 483 872 460 872 q 556 997 556 872 l 596 997 q 568 876 599 919 q 483 832 538 832 q 425 851 453 832 q 380 891 397 869 q 339 931 363 913 q 292 950 315 950 q 218 825 218 950 m 632 91 q 585 39 632 91 q 392 -14 539 -14 q 151 91 244 -14 q 58 364 58 196 q 151 634 58 529 q 392 739 244 739 q 632 634 539 739 q 725 364 725 529 q 632 91 725 196 m 185 119 q 225 72 185 119 q 392 25 265 25 q 598 119 518 25 q 678 364 678 213 q 598 607 678 514 q 392 700 518 700 q 185 607 265 700 q 106 364 106 514 q 185 119 106 213 z "},"ö":{"ha":783,"x_min":58,"x_max":725,"o":"m 558 899 q 542 858 558 875 q 501 842 526 842 q 460 858 476 842 q 443 899 443 875 q 460 940 443 924 q 501 956 476 956 q 542 940 526 956 q 558 899 558 924 m 340 899 q 324 858 340 875 q 283 842 308 842 q 242 858 258 842 q 225 899 225 875 q 241 940 225 924 q 283 956 257 956 q 324 940 308 956 q 340 899 340 924 m 632 91 q 585 39 632 91 q 392 -14 539 -14 q 151 91 244 -14 q 58 364 58 196 q 151 634 58 529 q 392 739 244 739 q 632 634 539 739 q 725 364 725 529 q 632 91 725 196 m 185 119 q 225 72 185 119 q 392 25 265 25 q 598 119 518 25 q 678 364 678 213 q 598 607 678 514 q 392 700 518 700 q 185 607 265 700 q 106 364 106 514 q 185 119 106 213 z "},"÷":{"ha":917,"x_min":111,"x_max":806,"o":"m 524 704 q 505 658 524 676 q 458 639 486 639 q 412 658 431 639 q 393 704 393 676 q 412 752 393 733 q 458 771 431 771 q 505 752 486 771 q 524 704 524 733 m 806 443 l 111 443 l 111 481 l 806 481 l 806 443 m 524 224 q 505 177 524 196 q 458 158 486 158 q 412 177 431 158 q 393 224 393 196 q 412 272 393 253 q 458 290 431 290 q 505 272 486 290 q 524 224 524 253 z "},"ø":{"ha":783,"x_min":58,"x_max":725,"o":"m 115 0 l 64 0 l 146 99 q 58 364 58 201 q 151 634 58 529 q 392 739 244 739 q 610 657 521 739 l 667 726 l 718 726 l 636 628 q 725 364 725 526 q 632 91 725 196 q 392 -14 539 -14 q 172 69 263 -14 l 115 0 m 106 364 q 174 133 106 225 l 582 624 q 392 700 503 700 q 185 607 265 700 q 106 364 106 514 m 392 25 q 598 119 518 25 q 678 364 678 213 q 608 594 678 503 l 200 103 q 392 25 278 25 z "},"ù":{"ha":754,"x_min":108,"x_max":639,"o":"m 407 825 l 346 825 l 204 997 l 265 997 l 407 825 m 592 286 l 592 726 l 639 726 l 639 0 l 593 0 l 593 150 q 499 32 565 78 q 350 -14 433 -14 q 172 51 235 -14 q 108 249 108 117 l 108 726 l 156 726 l 156 261 q 210 82 156 139 q 357 25 264 25 q 526 100 461 25 q 592 286 592 175 z "},"ú":{"ha":754,"x_min":108,"x_max":639,"o":"m 410 825 l 349 825 l 489 997 l 550 997 l 410 825 m 592 286 l 592 726 l 639 726 l 639 0 l 593 0 l 593 150 q 499 32 565 78 q 350 -14 433 -14 q 172 51 235 -14 q 108 249 108 117 l 108 726 l 156 726 l 156 261 q 210 82 156 139 q 357 25 264 25 q 526 100 461 25 q 592 286 592 175 z "},"û":{"ha":754,"x_min":108,"x_max":639,"o":"m 238 825 l 179 825 l 358 997 l 397 997 l 578 825 l 519 825 l 378 958 l 238 825 m 592 286 l 592 726 l 639 726 l 639 0 l 593 0 l 593 150 q 499 32 565 78 q 350 -14 433 -14 q 172 51 235 -14 q 108 249 108 117 l 108 726 l 156 726 l 156 261 q 210 82 156 139 q 357 25 264 25 q 526 100 461 25 q 592 286 592 175 z "},"ü":{"ha":754,"x_min":108,"x_max":639,"o":"m 544 899 q 528 858 544 875 q 488 842 513 842 q 446 858 463 842 q 429 899 429 875 q 446 940 429 924 q 488 956 463 956 q 528 940 513 956 q 544 899 544 924 m 326 899 q 310 858 326 875 q 269 842 294 842 q 228 858 244 842 q 211 899 211 875 q 227 940 211 924 q 269 956 243 956 q 310 940 294 956 q 326 899 326 924 m 592 286 l 592 726 l 639 726 l 639 0 l 593 0 l 593 150 q 499 32 565 78 q 350 -14 433 -14 q 172 51 235 -14 q 108 249 108 117 l 108 726 l 156 726 l 156 261 q 210 82 156 139 q 357 25 264 25 q 526 100 461 25 q 592 286 592 175 z "},"ý":{"ha":636,"x_min":11,"x_max":625,"o":"m 350 825 l 289 825 l 429 997 l 490 997 l 350 825 m 625 726 l 243 -268 l 194 -268 l 301 10 l 11 726 l 61 726 l 325 71 l 575 726 l 625 726 z "},"þ":{"ha":808,"x_min":115,"x_max":750,"o":"m 750 364 q 664 89 750 192 q 433 -14 578 -14 q 269 37 342 -14 q 163 178 197 88 l 163 -268 l 115 -268 l 115 997 l 163 997 l 163 543 q 269 688 197 635 q 433 740 342 740 q 663 638 576 740 q 750 364 750 535 m 703 364 q 630 611 703 521 q 432 701 557 701 q 235 610 311 701 q 160 365 160 519 q 235 119 160 213 q 432 25 310 25 q 630 115 557 25 q 703 364 703 206 z "},"ÿ":{"ha":636,"x_min":11,"x_max":625,"o":"m 485 899 q 469 858 485 875 q 428 842 453 842 q 386 858 403 842 q 369 899 369 875 q 386 940 369 924 q 428 956 403 956 q 469 940 453 956 q 485 899 485 924 m 267 899 q 251 858 267 875 q 210 842 235 842 q 168 858 185 842 q 151 899 151 875 q 167 940 151 924 q 210 956 183 956 q 251 940 235 956 q 267 899 267 924 m 625 726 l 243 -268 l 194 -268 l 301 10 l 11 726 l 61 726 l 325 71 l 575 726 l 625 726 z "},"Ā":{"ha":935,"x_min":47,"x_max":888,"o":"m 646 1117 l 286 1117 l 286 1156 l 646 1156 l 646 1117 m 839 0 l 718 308 l 214 308 l 93 0 l 47 0 l 442 997 l 494 997 l 888 0 l 839 0 m 467 949 l 231 350 l 701 350 l 467 949 z "},"ā":{"ha":724,"x_min":67,"x_max":615,"o":"m 542 846 l 182 846 l 182 885 l 542 885 l 542 846 m 569 0 l 569 154 q 471 31 540 76 q 313 -14 401 -14 q 133 43 200 -14 q 67 196 67 100 q 403 411 67 411 q 568 403 465 411 l 568 474 q 515 641 568 581 q 365 701 461 701 q 201 640 263 701 q 140 475 140 579 l 96 475 q 169 667 96 594 q 364 740 243 740 q 549 672 482 740 q 615 482 615 604 l 615 0 l 569 0 m 114 197 q 169 72 114 119 q 313 25 224 25 q 499 99 429 25 q 568 296 568 172 l 568 367 q 404 374 478 374 q 114 197 114 374 z "},"Ă":{"ha":935,"x_min":47,"x_max":888,"o":"m 603 1268 l 649 1268 q 598 1142 649 1193 q 467 1092 547 1092 q 336 1142 386 1092 q 286 1268 286 1193 l 331 1268 q 367 1169 331 1207 q 467 1131 404 1131 q 567 1169 531 1131 q 603 1268 603 1207 m 839 0 l 718 308 l 214 308 l 93 0 l 47 0 l 442 997 l 494 997 l 888 0 l 839 0 m 467 949 l 231 350 l 701 350 l 467 949 z "},"ă":{"ha":724,"x_min":67,"x_max":615,"o":"m 499 997 l 544 997 q 494 872 544 922 q 363 821 443 821 q 232 872 282 821 q 182 997 182 922 l 226 997 q 263 898 226 936 q 363 860 300 860 q 463 898 426 860 q 499 997 499 936 m 569 0 l 569 154 q 471 31 540 76 q 313 -14 401 -14 q 133 43 200 -14 q 67 196 67 100 q 403 411 67 411 q 568 403 465 411 l 568 474 q 515 641 568 581 q 365 701 461 701 q 201 640 263 701 q 140 475 140 579 l 96 475 q 169 667 96 594 q 364 740 243 740 q 549 672 482 740 q 615 482 615 604 l 615 0 l 569 0 m 114 197 q 169 72 114 119 q 313 25 224 25 q 499 99 429 25 q 568 296 568 172 l 568 367 q 404 374 478 374 q 114 197 114 374 z "},"Ą":{"ha":935,"x_min":47,"x_max":896,"o":"m 896 -222 l 896 -262 q 826 -276 860 -276 q 740 -244 774 -276 q 707 -160 707 -211 q 833 13 707 -65 l 718 308 l 214 308 l 93 0 l 47 0 l 442 997 l 494 997 l 888 0 l 867 0 q 753 -154 753 -62 q 775 -213 753 -190 q 835 -236 797 -236 q 896 -222 864 -236 m 467 949 l 231 350 l 701 350 l 467 949 z "},"ą":{"ha":724,"x_min":67,"x_max":626,"o":"m 626 -222 l 626 -262 q 557 -276 590 -276 q 471 -244 504 -276 q 438 -160 438 -211 q 569 15 438 -62 l 569 154 q 471 31 540 76 q 313 -14 401 -14 q 133 43 200 -14 q 67 196 67 100 q 403 411 67 411 q 568 403 465 411 l 568 474 q 515 641 568 581 q 365 701 461 701 q 201 640 263 701 q 140 475 140 579 l 96 475 q 169 667 96 594 q 364 740 243 740 q 549 672 482 740 q 615 482 615 604 l 615 0 l 597 0 q 483 -154 483 -62 q 506 -213 483 -190 q 565 -236 528 -236 q 626 -222 594 -236 m 114 197 q 169 72 114 119 q 313 25 224 25 q 499 99 429 25 q 568 296 568 172 l 568 367 q 404 374 478 374 q 114 197 114 374 z "},"Ć":{"ha":1060,"x_min":61,"x_max":999,"o":"m 579 1096 l 518 1096 l 658 1268 l 719 1268 l 579 1096 m 542 -21 q 199 129 336 -21 q 61 500 61 279 q 199 869 61 721 q 542 1018 336 1018 q 840 913 713 1018 q 999 638 968 808 l 949 638 q 808 880 921 785 q 542 975 694 975 q 234 839 357 975 q 111 500 111 703 q 234 158 111 294 q 542 22 357 22 q 810 118 696 22 q 949 361 924 214 l 999 361 q 840 85 968 192 q 542 -21 711 -21 z "},"ć":{"ha":731,"x_min":58,"x_max":672,"o":"m 407 825 l 346 825 l 486 997 l 547 997 l 407 825 m 369 -15 q 145 90 232 -15 q 58 364 58 196 q 145 635 58 531 q 369 740 232 740 q 568 667 488 740 q 672 461 649 593 l 626 461 q 538 638 606 575 q 369 701 469 701 q 179 607 253 701 q 106 364 106 513 q 179 119 106 214 q 369 24 253 24 q 539 88 471 24 q 628 265 607 151 l 672 265 q 569 60 650 135 q 369 -15 489 -15 z "},"Č":{"ha":1060,"x_min":61,"x_max":999,"o":"m 567 1096 l 528 1096 l 349 1268 l 407 1268 l 547 1135 l 689 1268 l 747 1268 l 567 1096 m 542 -21 q 199 129 336 -21 q 61 500 61 279 q 199 869 61 721 q 542 1018 336 1018 q 840 913 713 1018 q 999 638 968 808 l 949 638 q 808 880 921 785 q 542 975 694 975 q 234 839 357 975 q 111 500 111 703 q 234 158 111 294 q 542 22 357 22 q 810 118 696 22 q 949 361 924 214 l 999 361 q 840 85 968 192 q 542 -21 711 -21 z "},"č":{"ha":731,"x_min":58,"x_max":672,"o":"m 394 825 l 356 825 l 176 997 l 235 997 l 375 864 l 517 997 l 575 997 l 394 825 m 369 -15 q 145 90 232 -15 q 58 364 58 196 q 145 635 58 531 q 369 740 232 740 q 568 667 488 740 q 672 461 649 593 l 626 461 q 538 638 606 575 q 369 701 469 701 q 179 607 253 701 q 106 364 106 513 q 179 119 106 214 q 369 24 253 24 q 539 88 471 24 q 628 265 607 151 l 672 265 q 569 60 650 135 q 369 -15 489 -15 z "},"Ď":{"ha":915,"x_min":118,"x_max":854,"o":"m 438 1096 l 399 1096 l 219 1268 l 278 1268 l 418 1135 l 560 1268 l 618 1268 l 438 1096 m 364 0 l 118 0 l 118 997 l 364 997 q 726 862 599 997 q 854 501 854 726 q 724 140 854 281 q 364 0 593 0 m 167 956 l 167 42 l 365 42 q 689 169 572 42 q 806 501 806 296 q 690 832 806 708 q 365 956 575 956 l 167 956 z "},"ď":{"ha":808,"x_min":58,"x_max":832,"o":"m 58 364 q 144 638 58 535 q 376 740 231 740 q 539 688 467 740 q 646 544 611 636 l 646 997 l 693 997 l 693 0 l 647 0 l 647 178 q 540 37 613 88 q 376 -14 468 -14 q 144 89 231 -14 q 58 364 58 192 m 814 799 l 782 799 l 782 997 l 832 997 l 814 799 m 106 364 q 178 115 106 206 q 376 25 250 25 q 574 119 500 25 q 649 367 649 213 q 574 611 649 521 q 376 701 499 701 q 178 611 250 701 q 106 364 106 521 z "},"Đ":{"ha":982,"x_min":8,"x_max":921,"o":"m 431 0 l 185 0 l 185 496 l 8 496 l 8 535 l 185 535 l 185 997 l 431 997 q 793 862 665 997 q 921 501 921 726 q 790 140 921 281 q 431 0 660 0 m 460 496 l 233 496 l 233 42 l 432 42 q 756 169 639 42 q 872 501 872 296 q 757 832 872 708 q 432 956 642 956 l 233 956 l 233 535 l 460 535 l 460 496 z "},"đ":{"ha":808,"x_min":58,"x_max":839,"o":"m 58 364 q 144 638 58 535 q 376 740 231 740 q 539 688 467 740 q 646 544 611 636 l 646 846 l 479 846 l 479 885 l 646 885 l 646 997 l 693 997 l 693 885 l 839 885 l 839 846 l 693 846 l 693 0 l 647 0 l 647 178 q 540 37 613 88 q 376 -14 468 -14 q 144 89 231 -14 q 58 364 58 192 m 106 364 q 178 115 106 206 q 376 25 250 25 q 574 119 500 25 q 649 367 649 213 q 574 611 649 521 q 376 701 499 701 q 178 611 250 701 q 106 364 106 521 z "},"Ē":{"ha":769,"x_min":118,"x_max":679,"o":"m 581 1117 l 221 1117 l 221 1156 l 581 1156 l 581 1117 m 679 42 l 679 0 l 118 0 l 118 997 l 669 997 l 669 956 l 167 956 l 167 536 l 628 536 l 628 494 l 167 494 l 167 42 l 679 42 z "},"ē":{"ha":754,"x_min":58,"x_max":696,"o":"m 561 846 l 201 846 l 201 885 l 561 885 l 561 846 m 385 -15 q 148 91 238 -15 q 58 371 58 197 q 149 635 58 529 q 378 740 240 740 q 610 633 524 740 q 692 353 697 526 l 104 353 q 185 113 110 201 q 385 24 260 24 q 560 83 490 24 q 650 244 631 142 l 696 244 q 591 55 675 125 q 385 -15 507 -15 m 378 701 q 186 615 263 701 q 104 392 110 529 l 643 392 q 566 619 636 538 q 378 701 496 701 z "},"Ė":{"ha":769,"x_min":118,"x_max":679,"o":"m 456 1165 q 440 1127 456 1142 q 403 1113 425 1113 q 365 1127 381 1113 q 350 1165 350 1142 q 365 1201 350 1188 q 403 1215 379 1215 q 441 1201 426 1215 q 456 1165 456 1188 m 679 42 l 679 0 l 118 0 l 118 997 l 669 997 l 669 956 l 167 956 l 167 536 l 628 536 l 628 494 l 167 494 l 167 42 l 679 42 z "},"ė":{"ha":754,"x_min":58,"x_max":696,"o":"m 422 931 q 429 924 422 931 q 436 894 436 917 q 421 857 436 872 q 383 842 406 842 q 346 857 361 842 q 331 894 331 872 q 345 931 331 917 q 383 944 360 944 q 422 931 407 944 m 385 -15 q 148 91 238 -15 q 58 371 58 197 q 149 635 58 529 q 378 740 240 740 q 610 633 524 740 q 692 353 697 526 l 104 353 q 185 113 110 201 q 385 24 260 24 q 560 83 490 24 q 650 244 631 142 l 696 244 q 591 55 675 125 q 385 -15 507 -15 m 378 701 q 186 615 263 701 q 104 392 110 529 l 643 392 q 566 619 636 538 q 378 701 496 701 z "},"Ę":{"ha":769,"x_min":118,"x_max":679,"o":"m 628 -222 l 628 -262 q 558 -276 592 -276 q 472 -244 506 -276 q 439 -160 439 -211 q 546 0 439 -74 l 118 0 l 118 997 l 669 997 l 669 956 l 167 956 l 167 536 l 628 536 l 628 494 l 167 494 l 167 42 l 679 42 l 679 0 l 599 0 q 485 -154 485 -62 q 507 -213 485 -190 q 567 -236 529 -236 q 628 -222 596 -236 z "},"ę":{"ha":754,"x_min":58,"x_max":696,"o":"m 385 -15 q 148 91 238 -15 q 58 371 58 197 q 149 635 58 529 q 378 740 240 740 q 610 633 524 740 q 692 353 697 526 l 104 353 q 185 113 110 201 q 385 24 260 24 q 560 83 490 24 q 650 244 631 142 l 696 244 q 630 94 681 157 q 503 4 579 32 q 381 -154 381 -60 q 403 -213 381 -190 q 463 -236 425 -236 q 524 -222 492 -236 l 524 -262 q 454 -276 488 -276 q 368 -244 401 -276 q 335 -160 335 -211 q 424 -14 335 -81 q 385 -15 411 -15 m 378 701 q 186 615 263 701 q 104 392 110 529 l 643 392 q 566 619 636 538 q 378 701 496 701 z "},"Ě":{"ha":769,"x_min":118,"x_max":679,"o":"m 421 1096 l 382 1096 l 203 1268 l 261 1268 l 401 1135 l 543 1268 l 601 1268 l 421 1096 m 679 42 l 679 0 l 118 0 l 118 997 l 669 997 l 669 956 l 167 956 l 167 536 l 628 536 l 628 494 l 167 494 l 167 42 l 679 42 z "},"ě":{"ha":754,"x_min":58,"x_max":696,"o":"m 401 825 l 363 825 l 183 997 l 242 997 l 382 864 l 524 997 l 582 997 l 401 825 m 385 -15 q 148 91 238 -15 q 58 371 58 197 q 149 635 58 529 q 378 740 240 740 q 610 633 524 740 q 692 353 697 526 l 104 353 q 185 113 110 201 q 385 24 260 24 q 560 83 490 24 q 650 244 631 142 l 696 244 q 591 55 675 125 q 385 -15 507 -15 m 378 701 q 186 615 263 701 q 104 392 110 529 l 643 392 q 566 619 636 538 q 378 701 496 701 z "},"Ğ":{"ha":1108,"x_min":61,"x_max":1047,"o":"m 689 1268 l 735 1268 q 684 1142 735 1193 q 553 1092 633 1092 q 422 1142 472 1092 q 372 1268 372 1193 l 417 1268 q 453 1169 417 1207 q 553 1131 490 1131 q 653 1169 617 1131 q 689 1268 689 1207 m 561 -21 q 204 127 347 -21 q 61 497 61 275 q 201 869 61 719 q 554 1018 340 1018 q 867 915 742 1018 q 1033 657 992 813 l 983 657 q 834 887 944 799 q 553 975 724 975 q 234 839 357 975 q 111 497 111 703 q 238 157 111 292 q 560 22 364 22 q 863 133 747 22 q 999 438 979 244 l 554 438 l 554 479 l 1047 479 q 906 113 1039 247 q 561 -21 774 -21 z "},"ğ":{"ha":783,"x_min":58,"x_max":668,"o":"m 507 997 l 553 997 q 502 872 553 922 q 371 821 451 821 q 240 872 290 821 q 190 997 190 922 l 235 997 q 272 898 235 936 q 371 860 308 860 q 471 898 435 860 q 507 997 507 936 m 372 -283 q 160 -217 238 -283 q 76 -32 82 -151 l 121 -32 q 192 -190 128 -135 q 371 -244 257 -244 q 557 -181 493 -244 q 621 6 621 -117 l 621 182 q 519 42 586 92 q 363 -7 451 -7 q 141 94 224 -7 q 58 368 58 196 q 141 639 58 538 q 363 740 224 740 q 519 688 450 740 q 622 543 589 635 l 622 726 l 668 726 l 668 7 q 591 -208 668 -132 q 372 -283 514 -283 m 106 368 q 174 122 106 211 q 364 33 243 33 q 552 122 481 33 q 624 358 624 211 q 553 608 624 515 q 364 701 483 701 q 175 613 244 701 q 106 368 106 524 z "},"Ģ":{"ha":1108,"x_min":61,"x_max":1047,"o":"m 561 -21 q 204 127 347 -21 q 61 497 61 275 q 201 869 61 719 q 554 1018 340 1018 q 867 915 742 1018 q 1033 657 992 813 l 983 657 q 834 887 944 799 q 553 975 724 975 q 234 839 357 975 q 111 497 111 703 q 238 157 111 292 q 560 22 364 22 q 863 133 747 22 q 999 438 979 244 l 554 438 l 554 479 l 1047 479 q 906 113 1039 247 q 561 -21 774 -21 m 614 -162 q 577 -244 614 -208 q 479 -279 540 -281 l 479 -246 q 549 -224 524 -244 q 574 -174 574 -204 q 522 -175 544 -186 q 499 -137 499 -164 q 513 -103 499 -115 q 550 -92 528 -92 q 597 -112 579 -92 q 614 -162 614 -133 z "},"ģ":{"ha":783,"x_min":58,"x_max":668,"o":"m 310 889 q 347 970 310 935 q 444 1006 383 1006 l 444 972 q 375 951 400 971 q 350 900 350 931 q 379 907 367 907 q 412 895 399 907 q 425 864 425 883 q 410 830 425 842 q 374 818 396 818 q 327 839 344 818 q 310 889 310 860 m 372 -283 q 160 -217 238 -283 q 76 -32 82 -151 l 121 -32 q 192 -190 128 -135 q 371 -244 257 -244 q 557 -181 493 -244 q 621 6 621 -117 l 621 182 q 519 42 586 92 q 363 -7 451 -7 q 141 94 224 -7 q 58 368 58 196 q 141 639 58 538 q 363 740 224 740 q 519 688 450 740 q 622 543 589 635 l 622 726 l 668 726 l 668 7 q 591 -208 668 -132 q 372 -283 514 -283 m 106 368 q 174 122 106 211 q 364 33 243 33 q 552 122 481 33 q 624 358 624 211 q 553 608 624 515 q 364 701 483 701 q 175 613 244 701 q 106 368 106 524 z "},"Ī":{"ha":285,"x_min":-39,"x_max":321,"o":"m 321 1117 l -39 1117 l -39 1156 l 321 1156 l 321 1117 m 167 0 l 118 0 l 118 997 l 167 997 l 167 0 z "},"ī":{"ha":278,"x_min":-43,"x_max":317,"o":"m 317 846 l -43 846 l -43 885 l 317 885 l 317 846 m 163 0 l 115 0 l 115 726 l 163 726 l 163 0 z "},"Į":{"ha":285,"x_min":-14,"x_max":175,"o":"m 167 0 l 146 0 q 32 -154 32 -62 q 54 -213 32 -190 q 114 -236 76 -236 q 175 -222 143 -236 l 175 -262 q 106 -276 139 -276 q 19 -244 53 -276 q -14 -160 -14 -211 q 118 15 -14 -62 l 118 997 l 167 997 l 167 0 z "},"į":{"ha":278,"x_min":-17,"x_max":192,"o":"m 177 931 q 184 924 177 931 q 192 894 192 917 q 176 857 192 872 q 139 842 161 842 q 101 857 117 842 q 86 894 86 872 q 101 931 86 917 q 139 944 115 944 q 177 931 163 944 m 163 0 l 143 0 q 29 -154 29 -62 q 51 -213 29 -190 q 111 -236 74 -236 q 172 -222 140 -236 l 172 -262 q 103 -276 136 -276 q 17 -244 50 -276 q -17 -160 -17 -211 q 115 15 -17 -62 l 115 726 l 163 726 l 163 0 z "},"İ":{"ha":285,"x_min":90,"x_max":196,"o":"m 196 1165 q 181 1127 196 1142 q 143 1113 167 1113 q 105 1127 119 1113 q 90 1165 90 1142 q 105 1201 90 1188 q 143 1215 119 1215 q 181 1201 167 1215 q 196 1165 196 1188 m 167 0 l 118 0 l 118 997 l 167 997 l 167 0 z "},"ı":{"ha":278,"x_min":115,"x_max":163,"o":"m 163 0 l 115 0 l 115 726 l 163 726 l 163 0 z "},"Ķ":{"ha":810,"x_min":118,"x_max":768,"o":"m 167 0 l 118 0 l 118 997 l 167 997 l 167 496 l 694 997 l 754 997 l 221 489 l 768 0 l 699 0 l 167 475 l 167 0 m 494 -162 q 458 -244 494 -208 q 360 -279 421 -281 l 360 -246 q 429 -224 404 -244 q 454 -174 454 -204 q 402 -175 425 -186 q 379 -137 379 -164 q 394 -103 379 -115 q 431 -92 408 -92 q 477 -112 460 -92 q 494 -162 494 -133 z "},"ķ":{"ha":646,"x_min":115,"x_max":646,"o":"m 163 0 l 115 0 l 115 997 l 163 997 l 163 372 l 558 726 l 618 726 l 217 367 l 646 0 l 581 0 l 163 356 l 163 0 m 429 -162 q 392 -244 429 -208 q 294 -279 356 -281 l 294 -246 q 364 -224 339 -244 q 389 -174 389 -204 q 337 -175 360 -186 q 314 -137 314 -164 q 328 -103 314 -115 q 365 -92 343 -92 q 412 -112 394 -92 q 429 -162 429 -133 z "},"Ĺ":{"ha":690,"x_min":107,"x_max":649,"o":"m 168 1096 l 107 1096 l 247 1268 l 308 1268 l 168 1096 m 649 0 l 118 0 l 118 997 l 167 997 l 167 42 l 649 42 l 649 0 z "},"ĺ":{"ha":278,"x_min":111,"x_max":313,"o":"m 172 1096 l 111 1096 l 251 1268 l 313 1268 l 172 1096 m 163 0 l 115 0 l 115 997 l 163 997 l 163 0 z "},"Ļ":{"ha":690,"x_min":118,"x_max":649,"o":"m 649 0 l 118 0 l 118 997 l 167 997 l 167 42 l 649 42 l 649 0 m 465 -162 q 428 -244 465 -208 q 331 -279 392 -281 l 331 -246 q 400 -224 375 -244 q 425 -174 425 -204 q 373 -175 396 -186 q 350 -137 350 -164 q 365 -103 350 -115 q 401 -92 379 -92 q 448 -112 431 -92 q 465 -162 465 -133 z "},"ļ":{"ha":278,"x_min":67,"x_max":201,"o":"m 163 0 l 115 0 l 115 997 l 163 997 l 163 0 m 201 -162 q 165 -244 201 -208 q 67 -279 128 -281 l 67 -246 q 136 -224 111 -244 q 161 -174 161 -204 q 109 -175 132 -186 q 86 -137 86 -164 q 101 -103 86 -115 q 138 -92 115 -92 q 184 -112 167 -92 q 201 -162 201 -133 z "},"Ľ":{"ha":690,"x_min":118,"x_max":649,"o":"m 649 0 l 118 0 l 118 997 l 167 997 l 167 42 l 649 42 l 649 0 m 368 799 l 336 799 l 336 997 l 386 997 l 368 799 z "},"ľ":{"ha":278,"x_min":115,"x_max":301,"o":"m 163 0 l 115 0 l 115 997 l 163 997 l 163 0 m 283 799 l 251 799 l 251 997 l 301 997 l 283 799 z "},"Ł":{"ha":690,"x_min":-36,"x_max":649,"o":"m 649 0 l 118 0 l 118 469 l -36 424 l -36 465 l 118 511 l 118 997 l 167 997 l 167 525 l 454 610 l 454 568 l 167 483 l 167 42 l 649 42 l 649 0 z "},"ł":{"ha":278,"x_min":-61,"x_max":346,"o":"m 163 0 l 115 0 l 115 471 l -61 421 l -61 460 l 115 511 l 115 997 l 163 997 l 163 525 l 346 578 l 346 538 l 163 485 l 163 0 z "},"Ń":{"ha":990,"x_min":118,"x_max":872,"o":"m 528 1096 l 467 1096 l 607 1268 l 668 1268 l 528 1096 m 813 0 l 165 929 l 165 0 l 118 0 l 118 997 l 175 997 l 825 65 l 825 997 l 872 997 l 872 0 l 813 0 z "},"ń":{"ha":768,"x_min":115,"x_max":660,"o":"m 421 825 l 360 825 l 500 997 l 561 997 l 421 825 m 163 438 l 163 0 l 115 0 l 115 726 l 161 726 l 161 572 q 262 694 194 647 q 410 740 329 740 q 593 670 526 740 q 660 472 660 600 l 660 0 l 613 0 l 613 456 q 558 638 613 574 q 401 701 503 701 q 233 624 303 701 q 163 438 163 547 z "},"Ņ":{"ha":990,"x_min":118,"x_max":872,"o":"m 813 0 l 165 929 l 165 0 l 118 0 l 118 997 l 175 997 l 825 65 l 825 997 l 872 997 l 872 0 l 813 0 m 557 -162 q 520 -244 557 -208 q 422 -279 483 -281 l 422 -246 q 492 -224 467 -244 q 517 -174 517 -204 q 465 -175 488 -186 q 442 -137 442 -164 q 456 -103 442 -115 q 493 -92 471 -92 q 540 -112 522 -92 q 557 -162 557 -133 z "},"ņ":{"ha":768,"x_min":115,"x_max":660,"o":"m 163 438 l 163 0 l 115 0 l 115 726 l 161 726 l 161 572 q 262 694 194 647 q 410 740 329 740 q 593 670 526 740 q 660 472 660 600 l 660 0 l 613 0 l 613 456 q 558 638 613 574 q 401 701 503 701 q 233 624 303 701 q 163 438 163 547 m 450 -162 q 413 -244 450 -208 q 315 -279 376 -281 l 315 -246 q 385 -224 360 -244 q 410 -174 410 -204 q 358 -175 381 -186 q 335 -137 335 -164 q 349 -103 335 -115 q 386 -92 364 -92 q 433 -112 415 -92 q 450 -162 450 -133 z "},"Ň":{"ha":990,"x_min":118,"x_max":872,"o":"m 515 1096 l 476 1096 l 297 1268 l 356 1268 l 496 1135 l 638 1268 l 696 1268 l 515 1096 m 813 0 l 165 929 l 165 0 l 118 0 l 118 997 l 175 997 l 825 65 l 825 997 l 872 997 l 872 0 l 813 0 z "},"ň":{"ha":768,"x_min":115,"x_max":660,"o":"m 408 825 l 369 825 l 190 997 l 249 997 l 389 864 l 531 997 l 589 997 l 408 825 m 163 438 l 163 0 l 115 0 l 115 726 l 161 726 l 161 572 q 262 694 194 647 q 410 740 329 740 q 593 670 526 740 q 660 472 660 600 l 660 0 l 613 0 l 613 456 q 558 638 613 574 q 401 701 503 701 q 233 624 303 701 q 163 438 163 547 z "},"Ō":{"ha":1121,"x_min":61,"x_max":1060,"o":"m 740 1117 l 381 1117 l 381 1156 l 740 1156 l 740 1117 m 561 -21 q 203 131 346 -21 q 61 500 61 282 q 203 867 61 717 q 561 1018 346 1018 q 917 867 775 1018 q 1060 500 1060 717 q 917 131 1060 283 q 561 -21 775 -21 m 239 160 q 303 91 239 160 q 561 22 367 22 q 883 160 756 22 q 1010 500 1010 297 q 883 839 1010 703 q 561 975 757 975 q 238 839 365 975 q 111 500 111 703 q 239 160 111 297 z "},"ō":{"ha":783,"x_min":58,"x_max":725,"o":"m 571 846 l 211 846 l 211 885 l 571 885 l 571 846 m 632 91 q 585 39 632 91 q 392 -14 539 -14 q 151 91 244 -14 q 58 364 58 196 q 151 634 58 529 q 392 739 244 739 q 632 634 539 739 q 725 364 725 529 q 632 91 725 196 m 185 119 q 225 72 185 119 q 392 25 265 25 q 598 119 518 25 q 678 364 678 213 q 598 607 678 514 q 392 700 518 700 q 185 607 265 700 q 106 364 106 514 q 185 119 106 213 z "},"Ő":{"ha":1121,"x_min":61,"x_max":1060,"o":"m 683 1096 l 622 1096 l 761 1268 l 824 1268 l 683 1096 m 467 1096 l 406 1096 l 544 1268 l 606 1268 l 467 1096 m 561 -21 q 203 131 346 -21 q 61 500 61 282 q 203 867 61 717 q 561 1018 346 1018 q 917 867 775 1018 q 1060 500 1060 717 q 917 131 1060 283 q 561 -21 775 -21 m 239 160 q 303 91 239 160 q 561 22 367 22 q 883 160 756 22 q 1010 500 1010 297 q 883 839 1010 703 q 561 975 757 975 q 238 839 365 975 q 111 500 111 703 q 239 160 111 297 z "},"ő":{"ha":783,"x_min":58,"x_max":725,"o":"m 514 825 l 453 825 l 592 997 l 654 997 l 514 825 m 297 825 l 236 825 l 375 997 l 436 997 l 297 825 m 632 91 q 585 39 632 91 q 392 -14 539 -14 q 151 91 244 -14 q 58 364 58 196 q 151 634 58 529 q 392 739 244 739 q 632 634 539 739 q 725 364 725 529 q 632 91 725 196 m 185 119 q 225 72 185 119 q 392 25 265 25 q 598 119 518 25 q 678 364 678 213 q 598 607 678 514 q 392 700 518 700 q 185 607 265 700 q 106 364 106 514 q 185 119 106 213 z "},"Œ":{"ha":1531,"x_min":61,"x_max":1440,"o":"m 181 126 q 121 199 181 126 q 61 500 61 272 q 181 873 61 728 q 496 1018 300 1018 q 733 942 632 1018 q 881 732 833 865 l 881 997 l 1431 997 l 1431 956 l 928 956 l 928 536 l 1389 536 l 1389 494 l 928 494 l 928 42 l 1440 42 l 1440 0 l 881 0 l 881 269 q 733 57 833 135 q 496 -21 632 -21 q 181 126 300 -21 m 111 500 q 217 154 111 286 q 497 22 322 22 q 776 154 672 22 q 881 500 881 286 q 776 844 881 713 q 497 975 672 975 q 216 844 321 975 q 111 500 111 713 z "},"œ":{"ha":1319,"x_min":58,"x_max":1261,"o":"m 58 364 q 149 635 58 531 q 378 739 239 739 q 559 679 481 739 q 672 515 638 619 q 782 681 706 621 q 957 740 858 740 q 1181 637 1100 740 q 1258 353 1263 533 l 697 353 q 772 110 700 196 q 964 24 844 24 q 1132 82 1065 24 q 1217 244 1199 140 l 1261 244 q 1160 56 1242 126 q 964 -15 1079 -15 q 781 44 857 -15 q 672 211 704 103 q 559 47 638 107 q 378 -14 481 -14 q 149 91 239 -14 q 58 364 58 196 m 957 701 q 775 618 847 701 q 699 392 703 535 l 1211 392 q 1137 622 1204 542 q 957 701 1069 701 m 106 364 q 181 119 106 213 q 378 25 256 25 q 575 118 500 25 q 650 364 650 211 q 575 608 650 515 q 378 700 500 700 q 181 607 257 700 q 106 364 106 514 z "},"Ŕ":{"ha":850,"x_min":118,"x_max":793,"o":"m 449 1096 l 388 1096 l 528 1268 l 589 1268 l 449 1096 m 167 0 l 118 0 l 118 997 l 456 997 q 685 921 600 997 q 769 707 769 844 q 696 509 769 588 q 499 419 622 431 l 793 0 l 735 0 l 444 417 l 167 417 l 167 0 m 167 956 l 167 458 l 447 458 q 647 524 574 458 q 721 707 721 589 q 647 890 721 825 q 447 956 574 956 l 167 956 z "},"ŕ":{"ha":449,"x_min":115,"x_max":457,"o":"m 317 825 l 256 825 l 396 997 l 457 997 l 317 825 m 163 408 l 163 0 l 115 0 l 115 726 l 161 726 l 161 547 q 271 688 197 635 q 435 740 344 740 l 435 690 q 242 608 322 690 q 163 408 163 526 z "},"Ŗ":{"ha":850,"x_min":118,"x_max":793,"o":"m 167 0 l 118 0 l 118 997 l 456 997 q 685 921 600 997 q 769 707 769 844 q 696 509 769 588 q 499 419 622 431 l 793 0 l 735 0 l 444 417 l 167 417 l 167 0 m 167 956 l 167 458 l 447 458 q 647 524 574 458 q 721 707 721 589 q 647 890 721 825 q 447 956 574 956 l 167 956 m 478 -162 q 441 -244 478 -208 q 343 -279 404 -281 l 343 -246 q 413 -224 388 -244 q 438 -174 438 -204 q 385 -175 408 -186 q 363 -137 363 -164 q 377 -103 363 -115 q 414 -92 392 -92 q 460 -112 443 -92 q 478 -162 478 -133 z "},"ŗ":{"ha":449,"x_min":65,"x_max":435,"o":"m 163 408 l 163 0 l 115 0 l 115 726 l 161 726 l 161 547 q 271 688 197 635 q 435 740 344 740 l 435 690 q 242 608 322 690 q 163 408 163 526 m 200 -162 q 163 -244 200 -208 q 65 -279 126 -281 l 65 -246 q 135 -224 110 -244 q 160 -174 160 -204 q 108 -175 131 -186 q 85 -137 85 -164 q 99 -103 85 -115 q 136 -92 114 -92 q 183 -112 165 -92 q 200 -162 200 -133 z "},"Ř":{"ha":850,"x_min":118,"x_max":793,"o":"m 436 1096 l 397 1096 l 218 1268 l 276 1268 l 417 1135 l 558 1268 l 617 1268 l 436 1096 m 167 0 l 118 0 l 118 997 l 456 997 q 685 921 600 997 q 769 707 769 844 q 696 509 769 588 q 499 419 622 431 l 793 0 l 735 0 l 444 417 l 167 417 l 167 0 m 167 956 l 167 458 l 447 458 q 647 524 574 458 q 721 707 721 589 q 647 890 721 825 q 447 956 574 956 l 167 956 z "},"ř":{"ha":449,"x_min":86,"x_max":485,"o":"m 304 825 l 265 825 l 86 997 l 144 997 l 285 864 l 426 997 l 485 997 l 304 825 m 163 408 l 163 0 l 115 0 l 115 726 l 161 726 l 161 547 q 271 688 197 635 q 435 740 344 740 l 435 690 q 242 608 322 690 q 163 408 163 526 z "},"Ś":{"ha":879,"x_min":88,"x_max":782,"o":"m 458 1096 l 397 1096 l 538 1268 l 599 1268 l 458 1096 m 782 258 q 692 66 782 146 q 442 -14 601 -14 q 186 69 279 -14 q 88 290 93 153 l 138 290 q 224 99 147 168 q 442 29 300 29 q 649 90 567 29 q 732 254 732 151 q 679 392 732 346 q 496 465 626 438 l 389 488 q 313 506 346 496 q 241 536 279 517 q 177 581 203 556 q 134 648 151 607 q 117 740 117 689 q 208 933 117 854 q 439 1011 299 1011 q 669 929 575 1011 q 771 713 764 847 l 719 713 q 636 897 713 825 q 439 968 560 968 q 240 901 313 968 q 167 742 167 835 q 186 653 167 690 q 244 592 206 615 q 322 556 283 568 q 417 531 360 543 l 521 508 q 717 424 653 481 q 782 258 782 367 z "},"ś":{"ha":696,"x_min":67,"x_max":622,"o":"m 369 825 l 308 825 l 449 997 l 510 997 l 369 825 m 622 186 q 550 40 622 93 q 353 -14 478 -14 q 153 48 229 -14 q 67 217 76 110 l 111 217 q 183 76 118 128 q 353 25 247 25 q 517 66 458 25 q 575 181 575 107 q 535 280 575 246 q 396 333 494 314 l 304 351 q 93 546 93 393 q 163 686 93 632 q 343 740 233 740 q 535 681 463 740 q 614 517 607 621 l 569 517 q 501 653 561 604 q 343 701 442 701 q 197 659 253 701 q 140 549 140 617 q 182 447 140 483 q 321 393 224 411 l 414 375 q 573 309 524 354 q 622 186 622 264 z "},"Ş":{"ha":879,"x_min":88,"x_max":782,"o":"m 564 -168 q 527 -245 564 -215 q 438 -275 490 -275 q 342 -246 382 -275 q 296 -165 303 -217 l 338 -165 q 371 -221 343 -201 q 438 -240 399 -240 q 496 -220 474 -240 q 518 -169 518 -200 q 478 -97 518 -119 q 388 -82 439 -75 l 411 -12 q 178 77 263 -6 q 88 290 93 160 l 138 290 q 224 99 147 168 q 442 29 300 29 q 649 90 567 29 q 732 254 732 151 q 679 392 732 346 q 496 465 626 438 l 389 488 q 313 506 346 496 q 241 536 279 517 q 177 581 203 556 q 134 648 151 607 q 117 740 117 689 q 208 933 117 854 q 439 1011 299 1011 q 669 929 575 1011 q 771 713 764 847 l 719 713 q 636 897 713 825 q 439 968 560 968 q 240 901 313 968 q 167 742 167 835 q 186 653 167 690 q 244 592 206 615 q 322 556 283 568 q 417 531 360 543 l 521 508 q 717 424 653 481 q 782 258 782 367 q 693 66 782 146 q 451 -14 604 -14 l 436 -56 q 527 -88 490 -57 q 564 -168 564 -119 z "},"ş":{"ha":696,"x_min":67,"x_max":622,"o":"m 488 -168 q 451 -245 488 -215 q 361 -275 414 -275 q 266 -246 306 -275 q 219 -165 226 -217 l 261 -165 q 294 -221 267 -201 q 361 -240 322 -240 q 419 -220 397 -240 q 442 -169 442 -200 q 402 -97 442 -119 q 311 -82 363 -75 l 335 -14 q 147 53 218 -8 q 67 217 76 114 l 111 217 q 183 76 118 128 q 353 25 247 25 q 517 66 458 25 q 575 181 575 107 q 535 280 575 246 q 396 333 494 314 l 304 351 q 93 546 93 393 q 163 686 93 632 q 343 740 233 740 q 535 681 463 740 q 614 517 607 621 l 569 517 q 501 653 561 604 q 343 701 442 701 q 197 659 253 701 q 140 549 140 617 q 182 447 140 483 q 321 393 224 411 l 414 375 q 573 309 524 354 q 622 186 622 264 q 556 44 622 97 q 375 -14 490 -8 l 360 -56 q 451 -88 414 -57 q 488 -168 488 -119 z "},"Š":{"ha":879,"x_min":88,"x_max":782,"o":"m 446 1096 l 407 1096 l 228 1268 l 286 1268 l 426 1135 l 568 1268 l 626 1268 l 446 1096 m 782 258 q 692 66 782 146 q 442 -14 601 -14 q 186 69 279 -14 q 88 290 93 153 l 138 290 q 224 99 147 168 q 442 29 300 29 q 649 90 567 29 q 732 254 732 151 q 679 392 732 346 q 496 465 626 438 l 389 488 q 313 506 346 496 q 241 536 279 517 q 177 581 203 556 q 134 648 151 607 q 117 740 117 689 q 208 933 117 854 q 439 1011 299 1011 q 669 929 575 1011 q 771 713 764 847 l 719 713 q 636 897 713 825 q 439 968 560 968 q 240 901 313 968 q 167 742 167 835 q 186 653 167 690 q 244 592 206 615 q 322 556 283 568 q 417 531 360 543 l 521 508 q 717 424 653 481 q 782 258 782 367 z "},"š":{"ha":696,"x_min":67,"x_max":622,"o":"m 357 825 l 318 825 l 139 997 l 197 997 l 338 864 l 479 997 l 538 997 l 357 825 m 622 186 q 550 40 622 93 q 353 -14 478 -14 q 153 48 229 -14 q 67 217 76 110 l 111 217 q 183 76 118 128 q 353 25 247 25 q 517 66 458 25 q 575 181 575 107 q 535 280 575 246 q 396 333 494 314 l 304 351 q 93 546 93 393 q 163 686 93 632 q 343 740 233 740 q 535 681 463 740 q 614 517 607 621 l 569 517 q 501 653 561 604 q 343 701 442 701 q 197 659 253 701 q 140 549 140 617 q 182 447 140 483 q 321 393 224 411 l 414 375 q 573 309 524 354 q 622 186 622 264 z "},"Ţ":{"ha":797,"x_min":31,"x_max":767,"o":"m 422 0 l 411 0 l 392 -56 q 483 -88 446 -57 q 519 -168 519 -119 q 483 -245 519 -215 q 393 -275 446 -275 q 298 -246 338 -275 q 251 -165 258 -217 l 293 -165 q 326 -221 299 -201 q 393 -240 354 -240 q 451 -220 429 -240 q 474 -169 474 -200 q 434 -97 474 -119 q 343 -82 394 -75 l 375 10 l 375 956 l 31 956 l 31 997 l 767 997 l 767 956 l 422 956 l 422 0 z "},"ţ":{"ha":501,"x_min":-14,"x_max":456,"o":"m 447 43 l 447 0 q 365 -14 407 -14 q 314 -10 339 -14 l 297 -56 q 388 -88 351 -57 q 425 -168 425 -119 q 388 -245 425 -215 q 299 -275 351 -275 q 203 -246 243 -275 q 157 -165 164 -217 l 199 -165 q 232 -221 204 -201 q 299 -240 260 -240 q 357 -220 335 -240 q 379 -169 379 -200 q 340 -97 379 -119 q 249 -82 300 -75 l 278 0 q 169 189 169 40 l 169 689 l -14 689 l -14 726 l 169 726 l 169 942 l 217 942 l 217 726 l 456 726 l 456 689 l 217 689 l 217 197 q 368 29 217 29 q 447 43 408 29 z "},"Ť":{"ha":797,"x_min":31,"x_max":767,"o":"m 418 1096 l 379 1096 l 200 1268 l 258 1268 l 399 1135 l 540 1268 l 599 1268 l 418 1096 m 422 0 l 375 0 l 375 956 l 31 956 l 31 997 l 767 997 l 767 956 l 422 956 l 422 0 z "},"ť":{"ha":501,"x_min":-14,"x_max":456,"o":"m 338 799 l 306 799 l 306 997 l 356 997 l 338 799 m 447 43 l 447 0 q 365 -14 407 -14 q 224 33 278 -14 q 169 189 169 81 l 169 689 l -14 689 l -14 726 l 169 726 l 169 942 l 217 942 l 217 726 l 456 726 l 456 689 l 217 689 l 217 197 q 368 29 217 29 q 447 43 408 29 z "},"Ū":{"ha":911,"x_min":115,"x_max":796,"o":"m 635 1117 l 275 1117 l 275 1156 l 635 1156 l 635 1117 m 796 997 l 796 322 q 702 71 796 163 q 456 -21 608 -21 q 209 71 303 -21 q 115 322 115 163 l 115 997 l 164 997 l 164 317 q 247 103 164 183 q 456 22 331 22 q 665 102 581 22 q 749 317 749 182 l 749 997 l 796 997 z "},"ū":{"ha":754,"x_min":108,"x_max":639,"o":"m 557 846 l 197 846 l 197 885 l 557 885 l 557 846 m 592 286 l 592 726 l 639 726 l 639 0 l 593 0 l 593 150 q 499 32 565 78 q 350 -14 433 -14 q 172 51 235 -14 q 108 249 108 117 l 108 726 l 156 726 l 156 261 q 210 82 156 139 q 357 25 264 25 q 526 100 461 25 q 592 286 592 175 z "},"Ů":{"ha":911,"x_min":115,"x_max":796,"o":"m 558 1130 q 536 1110 558 1130 q 456 1090 515 1090 q 354 1130 396 1090 q 313 1225 313 1169 q 354 1320 313 1281 q 456 1360 396 1360 q 558 1320 515 1360 q 600 1225 600 1281 q 558 1130 600 1169 m 456 1126 q 528 1153 500 1126 q 557 1225 557 1179 q 528 1297 557 1271 q 456 1322 500 1322 q 384 1297 413 1322 q 356 1225 356 1271 q 384 1153 356 1179 q 456 1126 413 1126 m 796 997 l 796 322 q 702 71 796 163 q 456 -21 608 -21 q 209 71 303 -21 q 115 322 115 163 l 115 997 l 164 997 l 164 317 q 247 103 164 183 q 456 22 331 22 q 665 102 581 22 q 749 317 749 182 l 749 997 l 796 997 z "},"ů":{"ha":754,"x_min":108,"x_max":639,"o":"m 480 859 q 459 839 480 859 q 378 819 438 819 q 276 859 318 819 q 235 954 235 899 q 276 1049 235 1010 q 378 1089 318 1089 q 480 1049 438 1089 q 522 954 522 1010 q 480 859 522 899 m 378 856 q 451 882 422 856 q 479 954 479 908 q 451 1026 479 1000 q 378 1051 422 1051 q 306 1026 335 1051 q 278 954 278 1000 q 306 882 278 908 q 378 856 335 856 m 592 286 l 592 726 l 639 726 l 639 0 l 593 0 l 593 150 q 499 32 565 78 q 350 -14 433 -14 q 172 51 235 -14 q 108 249 108 117 l 108 726 l 156 726 l 156 261 q 210 82 156 139 q 357 25 264 25 q 526 100 461 25 q 592 286 592 175 z "},"Ű":{"ha":911,"x_min":115,"x_max":796,"o":"m 578 1096 l 517 1096 l 656 1268 l 718 1268 l 578 1096 m 361 1096 l 300 1096 l 439 1268 l 500 1268 l 361 1096 m 796 997 l 796 322 q 702 71 796 163 q 456 -21 608 -21 q 209 71 303 -21 q 115 322 115 163 l 115 997 l 164 997 l 164 317 q 247 103 164 183 q 456 22 331 22 q 665 102 581 22 q 749 317 749 182 l 749 997 l 796 997 z "},"ű":{"ha":754,"x_min":108,"x_max":640,"o":"m 500 825 l 439 825 l 578 997 l 640 997 l 500 825 m 283 825 l 222 825 l 361 997 l 422 997 l 283 825 m 592 286 l 592 726 l 639 726 l 639 0 l 593 0 l 593 150 q 499 32 565 78 q 350 -14 433 -14 q 172 51 235 -14 q 108 249 108 117 l 108 726 l 156 726 l 156 261 q 210 82 156 139 q 357 25 264 25 q 526 100 461 25 q 592 286 592 175 z "},"Ų":{"ha":911,"x_min":115,"x_max":796,"o":"m 621 -222 l 621 -262 q 551 -276 585 -276 q 465 -244 499 -276 q 432 -160 432 -211 q 517 -17 432 -83 q 456 -21 488 -21 q 209 71 303 -21 q 115 322 115 163 l 115 997 l 164 997 l 164 317 q 247 103 164 183 q 456 22 331 22 q 665 102 581 22 q 749 317 749 182 l 749 997 l 796 997 l 796 322 q 744 124 796 206 q 601 6 692 42 q 478 -154 478 -60 q 500 -213 478 -190 q 560 -236 522 -236 q 621 -222 589 -236 z "},"ų":{"ha":754,"x_min":108,"x_max":650,"o":"m 592 286 l 592 726 l 639 726 l 639 0 l 621 0 q 507 -154 507 -62 q 529 -213 507 -190 q 589 -236 551 -236 q 650 -222 618 -236 l 650 -262 q 581 -276 614 -276 q 494 -244 528 -276 q 461 -160 461 -211 q 593 15 461 -62 l 593 150 q 499 32 565 78 q 350 -14 433 -14 q 172 51 235 -14 q 108 249 108 117 l 108 726 l 156 726 l 156 261 q 210 82 156 139 q 357 25 264 25 q 526 100 461 25 q 592 286 592 175 z "},"Ŵ":{"ha":1253,"x_min":47,"x_max":1206,"o":"m 486 1096 l 428 1096 l 607 1268 l 646 1268 l 826 1096 l 768 1096 l 626 1229 l 486 1096 m 885 0 l 626 938 l 367 0 l 314 0 l 47 997 l 94 997 l 339 63 l 599 997 l 654 997 l 913 61 l 1158 997 l 1206 997 l 940 0 l 885 0 z "},"ŵ":{"ha":1017,"x_min":25,"x_max":992,"o":"m 368 825 l 310 825 l 489 997 l 528 997 l 708 825 l 650 825 l 508 958 l 368 825 m 726 0 l 508 665 l 290 0 l 240 0 l 25 726 l 74 726 l 265 67 l 485 726 l 531 726 l 750 65 l 942 726 l 992 726 l 775 0 l 726 0 z "},"Ŷ":{"ha":819,"x_min":17,"x_max":803,"o":"m 269 1096 l 211 1096 l 390 1268 l 429 1268 l 610 1096 l 551 1096 l 410 1229 l 269 1096 m 433 374 l 433 0 l 385 0 l 385 374 l 17 997 l 71 997 l 410 421 l 750 997 l 803 997 l 433 374 z "},"ŷ":{"ha":636,"x_min":11,"x_max":625,"o":"m 178 825 l 119 825 l 299 997 l 338 997 l 518 825 l 460 825 l 318 958 l 178 825 m 625 726 l 243 -268 l 194 -268 l 301 10 l 11 726 l 61 726 l 325 71 l 575 726 l 625 726 z "},"Ÿ":{"ha":819,"x_min":17,"x_max":803,"o":"m 576 1169 q 560 1129 576 1146 q 519 1113 544 1113 q 478 1129 494 1113 q 461 1169 461 1146 q 478 1210 461 1194 q 519 1226 494 1226 q 560 1210 544 1226 q 576 1169 576 1194 m 358 1169 q 342 1129 358 1146 q 301 1113 326 1113 q 260 1129 276 1113 q 243 1169 243 1146 q 259 1210 243 1194 q 301 1226 275 1226 q 342 1210 326 1226 q 358 1169 358 1194 m 433 374 l 433 0 l 385 0 l 385 374 l 17 997 l 71 997 l 410 421 l 750 997 l 803 997 l 433 374 z "},"Ź":{"ha":803,"x_min":50,"x_max":753,"o":"m 433 1096 l 372 1096 l 513 1268 l 574 1268 l 433 1096 m 753 0 l 50 0 l 50 28 l 667 956 l 78 956 l 78 997 l 729 997 l 729 969 l 113 42 l 753 42 l 753 0 z "},"ź":{"ha":628,"x_min":33,"x_max":594,"o":"m 347 825 l 286 825 l 426 997 l 488 997 l 347 825 m 594 0 l 33 0 l 33 26 l 518 688 l 56 688 l 56 726 l 575 726 l 575 696 l 94 39 l 594 39 l 594 0 z "},"Ż":{"ha":803,"x_min":50,"x_max":753,"o":"m 456 1165 q 440 1127 456 1142 q 403 1113 425 1113 q 365 1127 381 1113 q 350 1165 350 1142 q 365 1201 350 1188 q 403 1215 379 1215 q 441 1201 426 1215 q 456 1165 456 1188 m 753 0 l 50 0 l 50 28 l 667 956 l 78 956 l 78 997 l 729 997 l 729 969 l 113 42 l 753 42 l 753 0 z "},"ż":{"ha":628,"x_min":33,"x_max":594,"o":"m 355 931 q 362 924 355 931 q 369 894 369 917 q 354 857 369 872 q 317 842 339 842 q 279 857 294 842 q 264 894 264 872 q 278 931 264 917 q 317 944 293 944 q 355 931 340 944 m 594 0 l 33 0 l 33 26 l 518 688 l 56 688 l 56 726 l 575 726 l 575 696 l 94 39 l 594 39 l 594 0 z "},"Ž":{"ha":803,"x_min":50,"x_max":753,"o":"m 421 1096 l 382 1096 l 203 1268 l 261 1268 l 401 1135 l 543 1268 l 601 1268 l 421 1096 m 753 0 l 50 0 l 50 28 l 667 956 l 78 956 l 78 997 l 729 997 l 729 969 l 113 42 l 753 42 l 753 0 z "},"ž":{"ha":628,"x_min":33,"x_max":594,"o":"m 335 825 l 296 825 l 117 997 l 175 997 l 315 864 l 457 997 l 515 997 l 335 825 m 594 0 l 33 0 l 33 26 l 518 688 l 56 688 l 56 726 l 575 726 l 575 696 l 94 39 l 594 39 l 594 0 z "},"ƒ":{"ha":781,"x_min":36,"x_max":731,"o":"m 413 443 l 319 86 q 117 -92 274 -92 q 36 -79 72 -92 l 36 -37 q 115 -49 74 -49 q 272 89 236 -49 l 365 443 l 92 443 l 92 481 l 375 481 l 447 751 q 661 953 500 953 q 731 943 697 953 l 731 900 q 661 910 703 910 q 553 871 592 910 q 493 753 514 832 l 422 481 l 675 481 l 675 443 l 413 443 z "},"Ș":{"ha":879,"x_min":88,"x_max":782,"o":"m 782 258 q 692 66 782 146 q 442 -14 601 -14 q 186 69 279 -14 q 88 290 93 153 l 138 290 q 224 99 147 168 q 442 29 300 29 q 649 90 567 29 q 732 254 732 151 q 679 392 732 346 q 496 465 626 438 l 389 488 q 313 506 346 496 q 241 536 279 517 q 177 581 203 556 q 134 648 151 607 q 117 740 117 689 q 208 933 117 854 q 439 1011 299 1011 q 669 929 575 1011 q 771 713 764 847 l 719 713 q 636 897 713 825 q 439 968 560 968 q 240 901 313 968 q 167 742 167 835 q 186 653 167 690 q 244 592 206 615 q 322 556 283 568 q 417 531 360 543 l 521 508 q 717 424 653 481 q 782 258 782 367 m 504 -162 q 467 -244 504 -208 q 369 -279 431 -281 l 369 -246 q 439 -224 414 -244 q 464 -174 464 -204 q 412 -175 435 -186 q 389 -137 389 -164 q 403 -103 389 -115 q 440 -92 418 -92 q 487 -112 469 -92 q 504 -162 504 -133 z "},"ș":{"ha":696,"x_min":67,"x_max":622,"o":"m 622 186 q 550 40 622 93 q 353 -14 478 -14 q 153 48 229 -14 q 67 217 76 110 l 111 217 q 183 76 118 128 q 353 25 247 25 q 517 66 458 25 q 575 181 575 107 q 535 280 575 246 q 396 333 494 314 l 304 351 q 93 546 93 393 q 163 686 93 632 q 343 740 233 740 q 535 681 463 740 q 614 517 607 621 l 569 517 q 501 653 561 604 q 343 701 442 701 q 197 659 253 701 q 140 549 140 617 q 182 447 140 483 q 321 393 224 411 l 414 375 q 573 309 524 354 q 622 186 622 264 m 428 -162 q 391 -244 428 -208 q 293 -279 354 -281 l 293 -246 q 363 -224 338 -244 q 388 -174 388 -204 q 335 -175 358 -186 q 313 -137 313 -164 q 327 -103 313 -115 q 364 -92 342 -92 q 410 -112 393 -92 q 428 -162 428 -133 z "},"Ț":{"ha":797,"x_min":31,"x_max":767,"o":"m 422 0 l 375 0 l 375 956 l 31 956 l 31 997 l 767 997 l 767 956 l 422 956 l 422 0 m 460 -162 q 423 -244 460 -208 q 325 -279 386 -281 l 325 -246 q 394 -224 369 -244 q 419 -174 419 -204 q 367 -175 390 -186 q 344 -137 344 -164 q 359 -103 344 -115 q 396 -92 374 -92 q 442 -112 425 -92 q 460 -162 460 -133 z "},"ț":{"ha":501,"x_min":-14,"x_max":456,"o":"m 447 43 l 447 0 q 365 -14 407 -14 q 224 33 278 -14 q 169 189 169 81 l 169 689 l -14 689 l -14 726 l 169 726 l 169 942 l 217 942 l 217 726 l 456 726 l 456 689 l 217 689 l 217 197 q 368 29 217 29 q 447 43 408 29 m 365 -162 q 328 -244 365 -208 q 231 -279 292 -281 l 231 -246 q 300 -224 275 -244 q 325 -174 325 -204 q 273 -175 296 -186 q 250 -137 250 -164 q 265 -103 250 -115 q 301 -92 279 -92 q 348 -112 331 -92 q 365 -162 365 -133 z "},"ȷ":{"ha":278,"x_min":-97,"x_max":163,"o":"m 163 726 l 163 -107 q 116 -235 163 -189 q -14 -282 69 -282 q -97 -268 -65 -282 l -97 -226 q -17 -239 -60 -239 q 115 -107 115 -239 l 115 726 l 163 726 z "},"ˆ":{"ha":694,"x_min":149,"x_max":547,"o":"m 207 825 l 149 825 l 328 997 l 367 997 l 547 825 l 489 825 l 347 958 l 207 825 z "},"ˇ":{"ha":694,"x_min":147,"x_max":546,"o":"m 365 825 l 326 825 l 147 997 l 206 997 l 346 864 l 488 997 l 546 997 l 365 825 z "},"ˉ":{"ha":694,"x_min":167,"x_max":526,"o":"m 526 846 l 167 846 l 167 885 l 526 885 l 526 846 z "},"˘":{"ha":694,"x_min":167,"x_max":529,"o":"m 483 997 l 529 997 q 478 872 529 922 q 347 821 428 821 q 217 872 267 821 q 167 997 167 922 l 211 997 q 248 898 211 936 q 347 860 285 860 q 447 898 411 860 q 483 997 483 936 z "},"˙":{"ha":694,"x_min":294,"x_max":400,"o":"m 385 931 q 393 924 385 931 q 400 894 400 917 q 385 857 400 872 q 347 842 369 842 q 310 857 325 842 q 294 894 294 872 q 309 931 294 917 q 347 944 324 944 q 385 931 371 944 z "},"˚":{"ha":694,"x_min":204,"x_max":492,"o":"m 449 859 q 428 839 449 859 q 347 819 407 819 q 246 859 288 819 q 204 954 204 899 q 246 1049 204 1010 q 347 1089 288 1089 q 449 1049 407 1089 q 492 954 492 1010 q 449 859 492 899 m 347 856 q 420 882 392 856 q 449 954 449 908 q 420 1026 449 1000 q 347 1051 392 1051 q 276 1026 304 1051 q 247 954 247 1000 q 276 882 247 908 q 347 856 304 856 z "},"˛":{"ha":694,"x_min":254,"x_max":443,"o":"m 443 -222 l 443 -262 q 374 -276 407 -276 q 288 -244 321 -276 q 254 -160 254 -211 q 400 24 254 -58 l 424 6 q 300 -154 300 -60 q 322 -213 300 -190 q 382 -236 344 -236 q 443 -222 411 -236 z "},"˜":{"ha":694,"x_min":139,"x_max":556,"o":"m 178 825 l 139 825 q 166 947 136 903 q 251 990 196 990 q 310 972 282 990 q 355 931 338 953 q 396 891 372 910 q 443 872 419 872 q 515 997 515 872 l 556 997 q 528 876 558 919 q 443 832 497 832 q 385 851 413 832 q 340 891 357 869 q 299 931 322 913 q 251 950 275 950 q 178 825 178 950 z "},"˝":{"ha":694,"x_min":139,"x_max":557,"o":"m 417 825 l 356 825 l 494 997 l 557 997 l 417 825 m 200 825 l 139 825 l 278 997 l 339 997 l 200 825 z "},"̀":{"ha":694,"x_min":246,"x_max":449,"o":"m 449 825 l 388 825 l 246 997 l 307 997 l 449 825 z "},"́":{"ha":694,"x_min":246,"x_max":447,"o":"m 307 825 l 246 825 l 386 997 l 447 997 l 307 825 z "},"̂":{"ha":694,"x_min":149,"x_max":547,"o":"m 207 825 l 149 825 l 328 997 l 367 997 l 547 825 l 489 825 l 347 958 l 207 825 z "},"̃":{"ha":694,"x_min":139,"x_max":556,"o":"m 178 825 l 139 825 q 166 947 136 903 q 251 990 196 990 q 310 972 282 990 q 355 931 338 953 q 396 891 372 910 q 443 872 419 872 q 515 997 515 872 l 556 997 q 528 876 558 919 q 443 832 497 832 q 385 851 413 832 q 340 891 357 869 q 299 931 322 913 q 251 950 275 950 q 178 825 178 950 z "},"̄":{"ha":694,"x_min":168,"x_max":528,"o":"m 528 846 l 168 846 l 168 885 l 528 885 l 528 846 z "},"̆":{"ha":694,"x_min":167,"x_max":529,"o":"m 483 997 l 529 997 q 478 872 529 922 q 347 821 428 821 q 217 872 267 821 q 167 997 167 922 l 211 997 q 248 898 211 936 q 347 860 285 860 q 447 898 411 860 q 483 997 483 936 z "},"̇":{"ha":694,"x_min":294,"x_max":400,"o":"m 385 931 q 393 924 385 931 q 400 894 400 917 q 385 857 400 872 q 347 842 369 842 q 310 857 325 842 q 294 894 294 872 q 309 931 294 917 q 347 944 324 944 q 385 931 371 944 z "},"̈":{"ha":694,"x_min":181,"x_max":514,"o":"m 514 899 q 498 858 514 875 q 457 842 482 842 q 415 858 432 842 q 399 899 399 875 q 415 940 399 924 q 457 956 432 956 q 498 940 482 956 q 514 899 514 924 m 296 899 q 280 858 296 875 q 239 842 264 842 q 197 858 214 842 q 181 899 181 875 q 197 940 181 924 q 239 956 213 956 q 280 940 264 956 q 296 899 296 924 z "},"̊":{"ha":694,"x_min":204,"x_max":492,"o":"m 449 859 q 428 839 449 859 q 347 819 407 819 q 246 859 288 819 q 204 954 204 899 q 246 1049 204 1010 q 347 1089 288 1089 q 449 1049 407 1089 q 492 954 492 1010 q 449 859 492 899 m 347 856 q 420 882 392 856 q 449 954 449 908 q 420 1026 449 1000 q 347 1051 392 1051 q 276 1026 304 1051 q 247 954 247 1000 q 276 882 247 908 q 347 856 304 856 z "},"̋":{"ha":694,"x_min":139,"x_max":557,"o":"m 417 825 l 356 825 l 494 997 l 557 997 l 417 825 m 200 825 l 139 825 l 278 997 l 339 997 l 200 825 z "},"̌":{"ha":694,"x_min":147,"x_max":546,"o":"m 365 825 l 326 825 l 147 997 l 206 997 l 346 864 l 488 997 l 546 997 l 365 825 z "},"̒":{"ha":694,"x_min":281,"x_max":415,"o":"m 281 889 q 317 970 281 935 q 415 1006 354 1006 l 415 972 q 346 951 371 971 q 321 900 321 931 q 350 907 338 907 q 383 895 369 907 q 396 864 396 883 q 381 830 396 842 q 344 818 367 818 q 298 839 315 818 q 281 889 281 860 z "},"̦":{"ha":694,"x_min":279,"x_max":414,"o":"m 414 -162 q 377 -244 414 -208 q 279 -279 340 -281 l 279 -246 q 349 -224 324 -244 q 374 -174 374 -204 q 322 -175 344 -186 q 299 -137 299 -164 q 313 -103 299 -115 q 350 -92 328 -92 q 397 -112 379 -92 q 414 -162 414 -133 z "},"̧":{"ha":694,"x_min":213,"x_max":481,"o":"m 481 -168 q 444 -245 481 -215 q 354 -275 407 -275 q 259 -246 299 -275 q 213 -165 219 -217 l 254 -165 q 288 -221 260 -201 q 354 -240 315 -240 q 413 -220 390 -240 q 435 -169 435 -200 q 395 -97 435 -119 q 304 -82 356 -75 l 336 10 l 376 10 l 353 -56 q 444 -88 407 -57 q 481 -168 481 -119 z "},"̨":{"ha":694,"x_min":254,"x_max":443,"o":"m 443 -222 l 443 -262 q 374 -276 407 -276 q 288 -244 321 -276 q 254 -160 254 -211 q 400 24 254 -58 l 424 6 q 300 -154 300 -60 q 322 -213 300 -190 q 382 -236 344 -236 q 443 -222 411 -236 z "},"̵":{"ha":694,"x_min":168,"x_max":528,"o":"m 528 846 l 168 846 l 168 885 l 528 885 l 528 846 z "},"̷":{"ha":694,"x_min":144,"x_max":551,"o":"m 551 538 l 144 421 l 144 460 l 551 578 l 551 538 z "},"̸":{"ha":694,"x_min":19,"x_max":674,"o":"m 71 0 l 19 0 l 622 726 l 674 726 l 71 0 z "},"Δ":{"ha":921,"x_min":40,"x_max":881,"o":"m 881 0 l 40 0 l 435 997 l 488 997 l 881 0 m 460 947 l 103 42 l 817 42 l 460 947 z "},"Ω":{"ha":946,"x_min":44,"x_max":901,"o":"m 431 0 l 51 0 l 51 42 l 385 42 l 385 154 q 139 304 233 194 q 44 579 44 414 q 165 888 44 764 q 474 1011 286 1011 q 781 888 660 1011 q 901 579 901 764 q 808 304 901 414 q 563 154 714 194 l 563 42 l 894 42 l 894 0 l 517 0 l 517 185 q 764 320 675 218 q 853 579 853 422 q 748 856 853 742 q 474 969 643 969 q 199 856 304 969 q 94 579 94 742 q 183 320 94 422 q 431 185 272 218 l 431 0 z "},"μ":{"ha":761,"x_min":115,"x_max":646,"o":"m 369 -14 q 160 96 218 -14 l 164 -268 l 115 -268 l 115 726 l 163 726 l 163 265 q 219 85 163 144 q 369 25 275 25 q 536 95 474 25 q 599 278 599 165 l 599 726 l 646 726 l 646 0 l 600 0 l 600 139 q 512 28 574 69 q 369 -14 450 -14 z "},"π":{"ha":761,"x_min":-14,"x_max":715,"o":"m 639 -14 q 514 31 561 -14 q 467 175 467 75 l 467 689 l 236 689 l 163 0 l 118 0 l 193 689 l -14 689 l -14 726 l 715 726 l 715 689 l 514 689 l 514 179 q 643 29 514 29 q 708 43 678 29 l 708 0 q 639 -14 674 -14 z "},"Ẁ":{"ha":1253,"x_min":47,"x_max":1206,"o":"m 656 1096 l 594 1096 l 453 1268 l 514 1268 l 656 1096 m 885 0 l 626 938 l 367 0 l 314 0 l 47 997 l 94 997 l 339 63 l 599 997 l 654 997 l 913 61 l 1158 997 l 1206 997 l 940 0 l 885 0 z "},"ẁ":{"ha":1017,"x_min":25,"x_max":992,"o":"m 538 825 l 476 825 l 335 997 l 396 997 l 538 825 m 726 0 l 508 665 l 290 0 l 240 0 l 25 726 l 74 726 l 265 67 l 485 726 l 531 726 l 750 65 l 942 726 l 992 726 l 775 0 l 726 0 z "},"Ẃ":{"ha":1253,"x_min":47,"x_max":1206,"o":"m 658 1096 l 597 1096 l 738 1268 l 799 1268 l 658 1096 m 885 0 l 626 938 l 367 0 l 314 0 l 47 997 l 94 997 l 339 63 l 599 997 l 654 997 l 913 61 l 1158 997 l 1206 997 l 940 0 l 885 0 z "},"ẃ":{"ha":1017,"x_min":25,"x_max":992,"o":"m 540 825 l 479 825 l 619 997 l 681 997 l 540 825 m 726 0 l 508 665 l 290 0 l 240 0 l 25 726 l 74 726 l 265 67 l 485 726 l 531 726 l 750 65 l 942 726 l 992 726 l 775 0 l 726 0 z "},"Ẅ":{"ha":1253,"x_min":47,"x_max":1206,"o":"m 793 1169 q 777 1129 793 1146 q 736 1113 761 1113 q 694 1129 711 1113 q 678 1169 678 1146 q 694 1210 678 1194 q 736 1226 711 1226 q 777 1210 761 1226 q 793 1169 793 1194 m 575 1169 q 559 1129 575 1146 q 518 1113 543 1113 q 476 1129 493 1113 q 460 1169 460 1146 q 476 1210 460 1194 q 518 1226 492 1226 q 559 1210 543 1226 q 575 1169 575 1194 m 885 0 l 626 938 l 367 0 l 314 0 l 47 997 l 94 997 l 339 63 l 599 997 l 654 997 l 913 61 l 1158 997 l 1206 997 l 940 0 l 885 0 z "},"ẅ":{"ha":1017,"x_min":25,"x_max":992,"o":"m 675 899 q 659 858 675 875 q 618 842 643 842 q 576 858 593 842 q 560 899 560 875 q 576 940 560 924 q 618 956 593 956 q 659 940 643 956 q 675 899 675 924 m 457 899 q 441 858 457 875 q 400 842 425 842 q 358 858 375 842 q 342 899 342 875 q 358 940 342 924 q 400 956 374 956 q 441 940 425 956 q 457 899 457 924 m 726 0 l 508 665 l 290 0 l 240 0 l 25 726 l 74 726 l 265 67 l 485 726 l 531 726 l 750 65 l 942 726 l 992 726 l 775 0 l 726 0 z "},"Ỳ":{"ha":819,"x_min":17,"x_max":803,"o":"m 439 1096 l 378 1096 l 236 1268 l 297 1268 l 439 1096 m 433 374 l 433 0 l 385 0 l 385 374 l 17 997 l 71 997 l 410 421 l 750 997 l 803 997 l 433 374 z "},"ỳ":{"ha":636,"x_min":11,"x_max":625,"o":"m 347 825 l 286 825 l 144 997 l 206 997 l 347 825 m 625 726 l 243 -268 l 194 -268 l 301 10 l 11 726 l 61 726 l 325 71 l 575 726 l 625 726 z "},"–":{"ha":694,"x_min":28,"x_max":667,"o":"m 667 365 l 28 365 l 28 406 l 667 406 l 667 365 z "},"—":{"ha":1042,"x_min":28,"x_max":1014,"o":"m 1014 365 l 28 365 l 28 406 l 1014 406 l 1014 365 z "},"‘":{"ha":356,"x_min":106,"x_max":265,"o":"m 106 840 q 147 950 106 900 q 265 1004 189 1000 l 265 968 q 183 930 215 963 q 149 854 151 897 q 182 861 163 861 q 225 844 208 861 q 242 804 242 828 q 224 762 242 778 q 181 746 207 746 q 124 772 143 746 q 106 840 106 799 z "},"’":{"ha":356,"x_min":90,"x_max":250,"o":"m 250 910 q 208 800 250 850 q 90 746 167 750 l 90 782 q 172 820 140 788 q 207 896 204 853 q 174 889 193 889 q 131 906 147 889 q 114 946 114 922 q 131 988 114 972 q 175 1004 149 1004 q 231 978 213 1004 q 250 910 250 951 z "},"‚":{"ha":356,"x_min":90,"x_max":250,"o":"m 250 31 q 208 -79 250 -29 q 90 -133 167 -129 l 90 -97 q 172 -59 140 -92 q 207 17 204 -26 q 172 10 192 10 q 131 26 147 10 q 114 67 114 43 q 131 109 114 93 q 175 125 149 125 q 231 99 213 125 q 250 31 250 72 z "},"“":{"ha":578,"x_min":106,"x_max":488,"o":"m 106 840 q 147 950 106 900 q 265 1004 189 1000 l 265 968 q 183 930 215 963 q 149 854 151 897 q 182 861 163 861 q 225 844 208 861 q 242 804 242 828 q 224 762 242 778 q 181 746 207 746 q 124 772 143 746 q 106 840 106 799 m 328 840 q 369 950 328 900 q 488 1004 411 1000 l 488 968 q 406 930 438 963 q 371 854 374 897 q 404 861 385 861 q 447 844 431 861 q 464 804 464 828 q 447 762 464 778 q 403 746 429 746 q 347 772 365 746 q 328 840 328 799 z "},"”":{"ha":578,"x_min":90,"x_max":472,"o":"m 250 910 q 208 800 250 850 q 90 746 167 750 l 90 782 q 172 820 140 788 q 207 896 204 853 q 174 889 193 889 q 131 906 147 889 q 114 946 114 922 q 131 988 114 972 q 175 1004 149 1004 q 231 978 213 1004 q 250 910 250 951 m 472 910 q 431 800 472 850 q 313 746 389 750 l 313 782 q 394 820 363 788 q 429 896 426 853 q 396 889 415 889 q 353 906 369 889 q 336 946 336 922 q 353 988 336 972 q 397 1004 371 1004 q 453 978 435 1004 q 472 910 472 951 z "},"„":{"ha":578,"x_min":90,"x_max":472,"o":"m 250 31 q 208 -79 250 -29 q 90 -133 167 -129 l 90 -97 q 172 -59 140 -92 q 207 17 204 -26 q 172 10 192 10 q 131 26 147 10 q 114 67 114 43 q 131 109 114 93 q 175 125 149 125 q 231 99 213 125 q 250 31 250 72 m 472 31 q 431 -79 472 -29 q 313 -133 389 -129 l 313 -97 q 394 -59 363 -92 q 429 17 426 -26 q 394 10 414 10 q 353 26 369 10 q 336 67 336 43 q 353 109 336 93 q 397 125 371 125 q 453 99 435 125 q 472 31 472 72 z "},"†":{"ha":917,"x_min":111,"x_max":806,"o":"m 479 -268 l 438 -268 l 438 632 l 111 632 l 111 671 l 438 671 l 438 997 l 479 997 l 479 671 l 806 671 l 806 632 l 479 632 l 479 -268 z "},"‡":{"ha":917,"x_min":111,"x_max":806,"o":"m 479 -268 l 438 -268 l 438 58 l 111 58 l 111 97 l 438 97 l 438 632 l 111 632 l 111 671 l 438 671 l 438 997 l 479 997 l 479 671 l 806 671 l 806 632 l 479 632 l 479 97 l 806 97 l 806 58 l 479 58 l 479 -268 z "},"•":{"ha":694,"x_min":176,"x_max":518,"o":"m 518 365 q 469 245 518 293 q 347 197 421 197 q 225 245 274 197 q 176 365 176 293 q 225 490 176 440 q 347 539 274 539 q 469 490 421 539 q 518 365 518 442 z "},"…":{"ha":1106,"x_min":113,"x_max":993,"o":"m 243 58 q 224 12 243 31 q 178 -7 206 -7 q 131 12 150 -7 q 113 58 113 31 q 131 106 113 88 q 178 125 150 125 q 224 106 206 125 q 243 58 243 88 m 618 58 q 599 12 618 31 q 553 -7 581 -7 q 506 12 525 -7 q 488 58 488 31 q 506 106 488 88 q 553 125 525 125 q 599 106 581 125 q 618 58 618 88 m 993 58 q 974 12 993 31 q 928 -7 956 -7 q 881 12 900 -7 q 863 58 863 31 q 881 106 863 88 q 928 125 900 125 q 974 106 956 125 q 993 58 993 88 z "},"‰":{"ha":2075,"x_min":58,"x_max":2017,"o":"m 523 447 q 486 406 523 447 q 328 364 449 364 q 133 447 207 364 q 58 656 58 531 q 133 863 58 779 q 328 947 207 947 q 523 863 449 947 q 597 656 597 779 q 523 447 597 531 m 469 0 l 425 0 l 950 939 l 996 939 l 469 0 m 169 470 q 201 436 169 470 q 328 401 233 401 q 487 470 422 401 q 551 656 551 539 q 488 842 551 774 q 328 910 424 910 q 168 842 232 910 q 104 656 104 774 q 169 470 104 539 m 1291 72 q 1254 31 1291 72 q 1096 -11 1217 -11 q 901 72 975 -11 q 826 281 826 156 q 901 488 826 404 q 1096 572 975 572 q 1291 488 1217 572 q 1365 281 1365 404 q 1291 72 1365 156 m 1942 72 q 1905 31 1942 72 q 1747 -11 1868 -11 q 1552 72 1626 -11 q 1478 281 1478 156 q 1552 488 1478 404 q 1747 572 1626 572 q 1942 488 1868 572 q 2017 281 2017 404 q 1942 72 2017 156 m 937 95 q 969 61 937 95 q 1096 26 1001 26 q 1255 95 1190 26 q 1319 281 1319 164 q 1256 467 1319 399 q 1096 535 1192 535 q 936 467 1000 535 q 872 281 872 399 q 937 95 872 164 m 1588 95 q 1620 61 1588 95 q 1747 26 1653 26 q 1906 95 1842 26 q 1971 281 1971 164 q 1907 467 1971 399 q 1747 535 1843 535 q 1588 467 1651 535 q 1524 281 1524 399 q 1588 95 1524 164 z "},"‹":{"ha":349,"x_min":56,"x_max":293,"o":"m 293 86 l 246 86 l 56 371 l 246 656 l 293 656 l 103 371 l 293 86 z "},"›":{"ha":349,"x_min":56,"x_max":293,"o":"m 56 656 l 103 656 l 293 371 l 103 86 l 56 86 l 246 371 l 56 656 z "},"⁄":{"ha":199,"x_min":-186,"x_max":385,"o":"m -142 0 l -186 0 l 339 939 l 385 939 l -142 0 z "},"⁰":{"ha":514,"x_min":47,"x_max":467,"o":"m 413 1212 q 440 1174 413 1212 q 467 996 467 1136 q 413 781 467 856 q 257 707 360 707 q 101 781 154 707 q 47 996 47 854 q 101 1212 47 1136 q 257 1288 156 1288 q 413 1212 358 1288 m 90 996 q 257 744 90 744 q 424 996 424 744 q 257 1250 424 1250 q 90 996 90 1250 z "},"⁴":{"ha":494,"x_min":31,"x_max":450,"o":"m 450 857 l 371 857 l 371 715 l 329 715 l 329 857 l 31 857 l 31 882 l 344 1279 l 371 1279 l 371 893 l 450 893 l 450 857 m 82 893 l 329 893 l 329 1204 l 82 893 z "},"⁵":{"ha":481,"x_min":46,"x_max":438,"o":"m 438 889 q 382 758 438 808 q 235 707 326 707 q 102 752 156 707 q 46 868 49 797 l 86 868 q 132 778 92 811 q 235 744 172 744 q 353 783 310 744 q 396 889 396 822 q 351 988 396 949 q 238 1028 306 1028 q 94 958 147 1028 l 64 965 l 118 1279 l 404 1279 l 404 1243 l 147 1243 l 108 1015 q 242 1065 164 1065 q 383 1015 329 1065 q 438 889 438 964 z "},"⁶":{"ha":503,"x_min":47,"x_max":456,"o":"m 456 890 q 397 760 456 813 q 251 707 339 707 q 106 760 164 707 q 47 892 47 814 q 60 960 47 926 q 86 1010 74 993 q 128 1061 99 1026 l 311 1279 l 358 1279 l 176 1064 q 258 1078 217 1078 q 399 1026 343 1078 q 456 890 456 974 m 413 890 q 367 998 413 956 q 251 1040 322 1040 q 135 1001 181 1040 q 90 892 90 961 q 136 787 90 829 q 251 744 182 744 q 367 786 322 744 q 413 890 413 828 z "},"⁷":{"ha":421,"x_min":17,"x_max":404,"o":"m 404 1254 l 154 715 l 110 715 l 360 1243 l 17 1243 l 17 1279 l 404 1279 l 404 1254 z "},"⁸":{"ha":536,"x_min":61,"x_max":475,"o":"m 475 867 q 417 752 475 796 q 268 708 360 708 q 119 752 176 708 q 61 867 61 796 q 97 958 61 922 q 190 1008 133 994 q 117 1060 146 1025 q 89 1139 89 1094 q 140 1246 89 1204 q 268 1288 192 1288 q 395 1246 343 1288 q 447 1139 447 1204 q 418 1059 447 1094 q 346 1008 389 1024 q 439 958 403 994 q 475 867 475 922 m 132 1138 q 169 1056 132 1086 q 268 1026 207 1026 q 367 1056 329 1026 q 404 1138 404 1086 q 367 1220 404 1190 q 268 1250 329 1250 q 169 1220 207 1250 q 132 1138 132 1190 m 104 868 q 150 779 104 813 q 268 746 196 746 q 385 779 339 746 q 432 868 432 813 q 386 957 432 925 q 268 989 340 989 q 150 957 196 989 q 104 868 104 925 z "},"⁹":{"ha":506,"x_min":49,"x_max":457,"o":"m 49 1104 q 107 1235 49 1182 q 253 1288 165 1288 q 399 1234 340 1288 q 457 1103 457 1181 q 444 1036 457 1068 q 419 985 432 1004 q 376 933 406 967 l 193 715 l 146 715 l 328 931 q 246 917 288 917 q 105 969 161 917 q 49 1104 49 1021 m 92 1104 q 137 997 92 1039 q 253 954 182 954 q 369 994 324 954 q 414 1103 414 1033 q 368 1208 414 1165 q 253 1250 322 1250 q 137 1208 182 1250 q 92 1104 92 1167 z "},"₀":{"ha":514,"x_min":47,"x_max":467,"o":"m 413 215 q 440 177 413 215 q 467 -1 467 139 q 413 -216 467 -142 q 257 -290 360 -290 q 101 -217 154 -290 q 47 -1 47 -143 q 101 215 47 139 q 257 290 156 290 q 413 215 358 290 m 90 -1 q 257 -253 90 -253 q 424 -1 424 -253 q 257 253 424 253 q 90 -1 90 253 z "},"₁":{"ha":292,"x_min":15,"x_max":178,"o":"m 178 -282 l 136 -282 l 136 246 l 15 246 l 15 282 l 178 282 l 178 -282 z "},"₂":{"ha":444,"x_min":39,"x_max":399,"o":"m 399 -246 l 399 -282 l 51 -282 l 51 -258 l 249 -47 q 327 49 303 11 q 351 133 351 88 q 313 218 351 183 q 217 253 275 253 q 117 217 156 253 q 79 128 79 182 l 39 128 q 91 245 40 200 q 218 290 142 290 q 344 247 294 290 q 394 136 394 203 q 376 65 394 101 q 339 4 358 28 q 278 -65 319 -19 l 110 -246 l 399 -246 z "},"₃":{"ha":514,"x_min":57,"x_max":453,"o":"m 453 -129 q 398 -245 453 -201 q 256 -289 343 -289 q 113 -245 168 -289 q 57 -129 58 -201 l 97 -129 q 144 -218 100 -185 q 257 -251 189 -251 q 368 -218 326 -251 q 410 -129 410 -185 q 364 -42 410 -75 q 244 -10 318 -10 l 186 -10 l 186 26 l 244 26 q 343 59 304 26 q 382 143 382 92 q 346 222 382 192 q 251 253 310 253 q 156 222 192 253 q 115 140 119 190 l 75 140 q 128 247 78 204 q 253 290 178 290 q 377 249 329 290 q 425 144 425 207 q 397 65 425 100 q 319 11 369 31 q 417 -41 382 -4 q 453 -129 453 -78 z "},"₄":{"ha":494,"x_min":31,"x_max":450,"o":"m 450 -140 l 371 -140 l 371 -282 l 329 -282 l 329 -140 l 31 -140 l 31 -115 l 344 282 l 371 282 l 371 -104 l 450 -104 l 450 -140 m 82 -104 l 329 -104 l 329 207 l 82 -104 z "},"₅":{"ha":481,"x_min":46,"x_max":438,"o":"m 438 -108 q 382 -240 438 -189 q 235 -290 326 -290 q 102 -245 156 -290 q 46 -129 49 -200 l 86 -129 q 132 -219 92 -186 q 235 -253 172 -253 q 353 -214 310 -253 q 396 -108 396 -175 q 351 -9 396 -49 q 238 31 306 31 q 94 -39 147 31 l 64 -32 l 118 282 l 404 282 l 404 246 l 147 246 l 108 18 q 242 68 164 68 q 383 17 329 68 q 438 -108 438 -33 z "},"₆":{"ha":503,"x_min":47,"x_max":456,"o":"m 456 -107 q 397 -237 456 -185 q 251 -290 339 -290 q 106 -237 164 -290 q 47 -106 47 -183 q 60 -37 47 -71 q 86 13 74 -4 q 128 64 99 29 l 311 282 l 358 282 l 176 67 q 258 81 217 81 q 399 28 343 81 q 456 -107 456 -24 m 413 -107 q 367 1 413 -42 q 251 43 322 43 q 135 3 181 43 q 90 -106 90 -36 q 136 -210 90 -168 q 251 -253 182 -253 q 367 -211 322 -253 q 413 -107 413 -169 z "},"₇":{"ha":421,"x_min":17,"x_max":404,"o":"m 404 257 l 154 -282 l 110 -282 l 360 246 l 17 246 l 17 282 l 404 282 l 404 257 z "},"₈":{"ha":536,"x_min":61,"x_max":475,"o":"m 475 -131 q 417 -245 475 -201 q 268 -289 360 -289 q 119 -245 176 -289 q 61 -131 61 -201 q 97 -39 61 -75 q 190 11 133 -3 q 117 63 146 28 q 89 142 89 97 q 140 249 89 207 q 268 290 192 290 q 395 249 343 290 q 447 142 447 207 q 418 62 447 97 q 346 11 389 26 q 439 -39 403 -3 q 475 -131 475 -75 m 132 140 q 169 59 132 89 q 268 29 207 29 q 367 59 329 29 q 404 140 404 89 q 367 223 404 193 q 268 253 329 253 q 169 223 207 253 q 132 140 132 193 m 104 -129 q 150 -218 104 -185 q 268 -251 196 -251 q 385 -218 339 -251 q 432 -129 432 -185 q 386 -40 432 -72 q 268 -8 340 -8 q 150 -40 196 -8 q 104 -129 104 -72 z "},"₉":{"ha":506,"x_min":49,"x_max":457,"o":"m 49 107 q 107 238 49 185 q 253 290 165 290 q 399 237 340 290 q 457 106 457 183 q 444 39 457 71 q 419 -12 432 7 q 376 -64 406 -31 l 193 -282 l 146 -282 l 328 -67 q 246 -81 288 -81 q 105 -28 161 -81 q 49 107 49 24 m 92 107 q 137 -1 92 42 q 253 -43 182 -43 q 369 -3 324 -43 q 414 106 414 36 q 368 210 414 168 q 253 253 322 253 q 137 211 182 253 q 92 107 92 169 z "},"€":{"ha":785,"x_min":33,"x_max":735,"o":"m 735 82 l 735 33 q 557 -14 663 -14 q 296 89 394 -14 q 178 382 197 192 l 33 382 l 33 419 l 175 419 q 178 558 172 492 l 33 558 l 33 596 l 182 596 q 306 860 210 768 q 557 953 403 953 q 735 906 663 953 l 735 856 q 564 910 664 910 q 340 829 425 910 q 232 596 256 749 l 578 596 l 578 558 l 226 558 q 224 419 221 500 l 578 419 l 578 382 l 226 382 q 331 120 244 211 q 564 29 418 29 q 735 82 660 29 z "},"₹":{"ha":799,"x_min":92,"x_max":724,"o":"m 724 647 l 610 647 q 535 478 603 546 q 353 397 467 411 l 629 0 l 571 0 l 301 393 l 92 393 l 92 435 l 283 435 q 482 490 408 435 q 563 647 556 546 l 92 647 l 92 683 l 563 683 q 482 842 556 786 q 283 899 408 899 l 92 899 l 92 939 l 724 939 l 724 903 l 442 903 q 610 683 601 844 l 724 683 l 724 647 z "},"₺":{"ha":754,"x_min":33,"x_max":707,"o":"m 660 401 l 707 401 q 570 110 701 226 q 244 -7 439 -7 q 211 -4 231 -7 l 211 463 l 33 418 l 33 456 l 211 500 l 211 643 l 33 597 l 33 635 l 211 681 l 211 939 l 257 939 l 257 692 l 592 778 l 592 742 l 257 656 l 257 513 l 592 597 l 592 560 l 257 475 l 257 35 q 542 140 428 36 q 660 401 657 244 z "},"₽":{"ha":760,"x_min":33,"x_max":707,"o":"m 665 200 l 263 200 l 263 0 l 217 0 l 217 200 l 33 200 l 33 238 l 217 238 l 217 381 l 33 381 l 33 417 l 217 417 l 217 939 l 376 939 q 617 865 526 939 q 707 656 707 790 q 617 453 707 525 q 376 381 526 381 l 263 381 l 263 238 l 665 238 l 665 200 m 376 901 l 263 901 l 263 417 l 369 417 q 583 478 507 417 q 660 654 660 539 q 585 837 660 772 q 376 901 510 901 z "},"™":{"ha":1071,"x_min":31,"x_max":953,"o":"m 235 508 l 193 508 l 193 961 l 31 961 l 31 997 l 397 997 l 397 961 l 235 961 l 235 508 m 685 508 l 493 949 l 493 508 l 454 508 l 454 997 l 513 997 l 706 556 l 897 997 l 953 997 l 953 508 l 914 508 l 914 943 l 726 508 l 685 508 z "},"℮":{"ha":1157,"x_min":35,"x_max":1122,"o":"m 979 189 l 1038 189 q 594 -14 886 -14 q 193 133 351 -14 q 35 497 35 281 q 194 853 35 699 q 579 1008 353 1008 q 960 862 811 1008 q 1122 482 1108 715 l 271 482 q 242 451 242 482 l 242 217 q 350 80 242 136 q 594 24 458 24 q 826 66 726 24 q 979 189 926 108 m 242 790 l 242 547 q 271 517 242 517 l 888 517 q 915 547 915 517 l 915 782 q 813 914 915 856 q 579 972 710 972 q 346 916 450 972 q 242 790 242 860 z "},"∂":{"ha":782,"x_min":58,"x_max":724,"o":"m 58 361 q 153 640 58 540 q 382 739 247 739 q 535 704 457 739 l 304 997 l 357 997 l 606 681 q 694 529 665 604 q 724 347 724 454 q 631 87 724 188 q 390 -14 538 -14 q 151 93 244 -14 q 58 361 58 200 m 106 361 q 183 117 106 206 q 392 28 261 28 q 600 113 524 28 q 676 347 676 197 q 598 604 676 510 q 392 699 519 699 q 183 608 261 699 q 106 361 106 518 z "},"∆":{"ha":921,"x_min":40,"x_max":881,"o":"m 881 0 l 40 0 l 435 997 l 488 997 l 881 0 m 460 947 l 103 42 l 817 42 l 460 947 z "},"∏":{"ha":969,"x_min":118,"x_max":851,"o":"m 167 -268 l 118 -268 l 118 997 l 851 997 l 851 -268 l 803 -268 l 803 956 l 167 956 l 167 -268 z "},"∑":{"ha":803,"x_min":50,"x_max":753,"o":"m 753 -268 l 50 -268 l 50 -240 l 464 382 l 74 969 l 74 997 l 725 997 l 725 956 l 136 956 l 517 381 l 113 -226 l 753 -226 l 753 -268 z "},"−":{"ha":917,"x_min":111,"x_max":806,"o":"m 806 443 l 111 443 l 111 481 l 806 481 l 806 443 z "},"∕":{"ha":917,"x_min":171,"x_max":746,"o":"m 213 0 l 171 0 l 704 939 l 746 939 l 213 0 z "},"∙":{"ha":917,"x_min":393,"x_max":524,"o":"m 524 475 q 505 428 524 447 q 458 410 486 410 q 412 428 431 410 q 393 475 393 447 q 412 523 393 504 q 458 542 431 542 q 505 523 486 542 q 524 475 524 504 z "},"√":{"ha":1260,"x_min":111,"x_max":1219,"o":"m 1219 997 l 738 -268 l 685 -268 l 443 364 l 111 364 l 111 406 l 475 406 l 711 -217 l 1174 997 l 1219 997 z "},"∞":{"ha":1443,"x_min":58,"x_max":1385,"o":"m 1385 364 q 1299 92 1385 197 q 1079 -14 1213 -14 q 874 73 958 -14 q 721 318 790 160 q 567 72 651 158 q 363 -14 483 -14 q 144 92 229 -14 q 58 364 58 197 q 144 635 58 529 q 363 740 229 740 q 567 654 483 740 q 721 410 651 568 q 874 654 790 568 q 1079 740 958 740 q 1299 635 1213 740 q 1385 364 1385 529 m 178 606 q 141 559 178 606 q 104 364 104 511 q 178 121 104 217 q 363 25 253 25 q 549 108 475 25 q 700 364 622 190 q 549 619 622 538 q 363 701 475 701 q 178 606 253 701 m 743 364 q 892 109 818 193 q 1079 25 967 25 q 1264 120 1190 25 q 1338 364 1338 215 q 1264 606 1338 511 q 1079 701 1190 701 q 892 618 967 701 q 743 364 818 535 z "},"∫":{"ha":694,"x_min":114,"x_max":581,"o":"m 372 810 l 372 -107 q 326 -235 372 -189 q 197 -282 279 -282 q 114 -268 146 -282 l 114 -226 q 194 -239 151 -239 q 326 -107 326 -239 l 326 807 q 375 954 326 903 q 510 1006 424 1006 q 581 994 547 1006 l 581 951 q 513 963 554 963 q 372 810 372 963 z "},"≈":{"ha":917,"x_min":114,"x_max":801,"o":"m 636 504 q 450 579 576 504 q 276 654 324 654 q 190 622 219 654 q 156 513 160 589 l 114 513 q 159 648 115 600 q 279 696 203 696 q 401 658 332 696 q 535 583 471 621 q 640 546 599 546 q 758 688 758 546 l 801 688 q 760 551 803 597 q 636 504 718 504 m 636 253 q 450 328 576 253 q 276 403 324 403 q 190 370 219 403 q 156 261 160 338 l 114 261 q 159 397 115 349 q 279 444 203 444 q 401 407 332 444 q 535 332 471 369 q 640 294 599 294 q 758 436 758 294 l 801 436 q 760 299 803 346 q 636 253 718 253 z "},"≠":{"ha":917,"x_min":111,"x_max":806,"o":"m 351 317 l 111 317 l 111 354 l 372 354 l 494 569 l 111 569 l 111 607 l 515 607 l 704 939 l 746 939 l 557 607 l 806 607 l 806 569 l 536 569 l 414 354 l 806 354 l 806 317 l 393 317 l 213 0 l 171 0 l 351 317 z "},"≤":{"ha":917,"x_min":111,"x_max":806,"o":"m 111 524 l 806 842 l 806 800 l 163 506 l 806 210 l 806 168 l 111 486 l 111 524 m 806 1 l 111 1 l 111 39 l 806 39 l 806 1 z "},"≥":{"ha":917,"x_min":111,"x_max":806,"o":"m 806 486 l 111 168 l 111 210 l 754 506 l 111 800 l 111 842 l 806 524 l 806 486 m 806 1 l 111 1 l 111 39 l 806 39 l 806 1 z "},"◊":{"ha":928,"x_min":188,"x_max":740,"o":"m 492 -268 l 439 -268 l 188 365 l 439 997 l 492 997 l 740 365 l 492 -268 m 233 365 l 464 -218 l 693 365 l 464 947 l 233 365 z "},"":{"ha":2415,"x_min":153,"x_max":2263,"o":"m 153 0 l 153 972 l 453 972 l 453 0 l 153 0 m 515 689 l 515 972 l 815 972 l 815 689 l 515 689 m 876 0 l 876 972 l 1178 972 l 1178 0 l 876 0 m 1239 689 l 1239 972 l 1539 972 l 1539 689 l 1239 689 m 1600 0 l 1600 972 l 1901 972 l 1901 0 l 1600 0 m 1963 689 l 1963 972 l 2263 972 l 2263 689 l 1963 689 m 1963 343 l 1963 628 l 2263 628 l 2263 343 l 1963 343 z "},"ﬁ":{"ha":733,"x_min":-7,"x_max":647,"o":"m 224 0 l 176 0 l 176 689 l -7 689 l -7 726 l 176 726 l 176 807 q 225 954 176 903 q 360 1006 274 1006 q 431 994 397 1006 l 431 951 q 363 963 404 963 q 224 810 224 963 l 224 726 l 451 726 l 451 689 l 224 689 l 224 0 m 633 931 q 640 924 633 931 q 647 894 647 917 q 632 857 647 872 q 594 842 617 842 q 557 857 572 842 q 542 894 542 872 q 556 931 542 917 q 594 944 571 944 q 633 931 618 944 m 618 0 l 571 0 l 571 726 l 618 726 l 618 0 z "},"ﬂ":{"ha":733,"x_min":-7,"x_max":618,"o":"m 224 0 l 176 0 l 176 689 l -7 689 l -7 726 l 176 726 l 176 807 q 225 954 176 903 q 360 1006 274 1006 q 431 994 397 1006 l 431 951 q 363 963 404 963 q 224 810 224 963 l 224 726 l 451 726 l 451 689 l 224 689 l 224 0 m 618 0 l 571 0 l 571 997 l 618 997 l 618 0 z "}}}
